<?xml version="1.0" encoding="utf-8"?>
<!-- Generator: Adobe Illustrator 27.5.0, SVG Export Plug-In . SVG Version: 6.00 Build 0)  -->
<svg version="1.1" xmlns="http://www.w3.org/2000/svg" xmlns:xlink="http://www.w3.org/1999/xlink" x="0px" y="0px"
	 viewBox="0 0 500 500" style="enable-background:new 0 0 500 500;" xml:space="preserve">
<g id="BACKGROUND">
	<rect y="0.03" style="fill:#D6E5E5;" width="500" height="500"/>
</g>
<g id="OBJECT">
	<g>
		<rect x="160.184" y="355.572" style="fill:#963D2E;" width="178.84" height="144.428"/>
		<g>
			<defs>
				<rect id="SVGID_1_" x="160.184" y="355.572" width="178.84" height="144.428"/>
			</defs>
			<clipPath id="SVGID_00000182501134939854726780000001834644153901549718_">
				<use xlink:href="#SVGID_1_"  style="overflow:visible;"/>
			</clipPath>
			<g style="clip-path:url(#SVGID_00000182501134939854726780000001834644153901549718_);">
				<g>
					<path style="fill:#7D2B20;" d="M318.318,526.273H180.891V368.977h137.426V526.273z M182.34,524.824h134.53V370.425H182.34
						V524.824z"/>
				</g>
				<g>
					<path style="fill:#7D2B20;" d="M311.981,523.21H187.228v-146h124.753V523.21z M188.557,521.881h122.094V378.54H188.557V521.881
						z"/>
				</g>
			</g>
		</g>
		<rect x="152.672" y="349.837" style="fill:#7D2B20;" width="194.656" height="11.471"/>
		<g>
			<path style="fill:#FFFFFF;" d="M321.008,330.057H178.992v-140.04c0-5.07,4.11-9.18,9.18-9.18h123.656c5.07,0,9.18,4.11,9.18,9.18
				V330.057z"/>
			<g>
				<path style="fill:#2A3D42;" d="M300.77,246.033H199.231c-4.077,0-7.394-3.317-7.394-7.394v-38.42
					c0-4.077,3.317-7.395,7.394-7.395H300.77c4.077,0,7.394,3.317,7.394,7.395v38.42
					C308.164,242.716,304.846,246.033,300.77,246.033z M199.231,196.636c-1.976,0-3.583,1.607-3.583,3.583v38.42
					c0,1.976,1.607,3.583,3.583,3.583H300.77c1.976,0,3.583-1.607,3.583-3.583v-38.42c0-1.976-1.607-3.583-3.583-3.583H199.231z"/>
			</g>
			<g>
				<path style="fill:#2A3D42;" d="M303.685,322.78H252.23c-5.066,0-9.188-4.122-9.188-9.189V265.91
					c0-5.067,4.122-9.189,9.188-9.189h51.455c5.066,0,9.188,4.122,9.188,9.189v47.681
					C312.873,318.658,308.751,322.78,303.685,322.78z M252.23,258.633c-4.013,0-7.277,3.264-7.277,7.278v47.681
					c0,4.013,3.264,7.278,7.277,7.278h51.455c4.012,0,7.277-3.264,7.277-7.278V265.91c0-4.013-3.264-7.278-7.277-7.278H252.23z"/>
			</g>
			<g>
				<rect x="250" y="263.509" style="fill:#2A3D42;" width="11.639" height="7.661"/>
				<rect x="263.161" y="263.509" style="fill:#2A3D42;" width="11.639" height="7.661"/>
				<rect x="276.323" y="263.509" style="fill:#2A3D42;" width="11.639" height="7.661"/>
			</g>
			<g>
				<rect x="250" y="274.486" style="fill:#2A3D42;" width="11.639" height="7.661"/>
				<rect x="263.161" y="274.486" style="fill:#2A3D42;" width="11.639" height="7.661"/>
				<rect x="276.323" y="274.486" style="fill:#2A3D42;" width="11.639" height="7.661"/>
			</g>
			<g>
				<rect x="250" y="285.463" style="fill:#2A3D42;" width="11.639" height="7.661"/>
				<rect x="263.161" y="285.463" style="fill:#2A3D42;" width="11.639" height="7.661"/>
				<rect x="263.161" y="296.44" style="fill:#2A3D42;" width="11.639" height="7.661"/>
				<rect x="276.323" y="285.463" style="fill:#2A3D42;" width="11.639" height="7.661"/>
			</g>
			<path style="fill:#006F3E;" d="M304.398,312.906h-11.545c-1.027,0-1.86-0.833-1.86-1.86v-19.892c0-1.027,0.833-1.86,1.86-1.86
				h11.545c1.027,0,1.86,0.833,1.86,1.86v19.892C306.258,312.073,305.425,312.906,304.398,312.906z"/>
			<path style="fill:#FFC60B;" d="M304.398,285.463h-11.545c-1.027,0-1.86-0.833-1.86-1.86v-4.284c0-1.027,0.833-1.86,1.86-1.86
				h11.545c1.027,0,1.86,0.833,1.86,1.86v4.284C306.258,284.63,305.425,285.463,304.398,285.463z"/>
			<path style="fill:#FF174F;" d="M304.398,273.285h-11.545c-1.027,0-1.86-0.833-1.86-1.86v-4.284c0-1.027,0.833-1.86,1.86-1.86
				h11.545c1.027,0,1.86,0.833,1.86,1.86v4.284C306.258,272.453,305.425,273.285,304.398,273.285z"/>
			<g>
				<path style="fill:#D7D7D7;" d="M221.044,218.743h-18.648c-0.723,0-1.31-0.587-1.31-1.31v-16.761c0-0.723,0.587-1.31,1.31-1.31
					h18.648c0.723,0,1.31,0.587,1.31,1.31v16.761C222.354,218.156,221.768,218.743,221.044,218.743z"/>
				<path style="fill:#F5F5F5;" d="M217.38,220.115h-11.32v-6.188c0-0.845,0.685-1.53,1.53-1.53h8.26c0.845,0,1.53,0.685,1.53,1.53
					V220.115z"/>
				<circle style="fill:#F5F5F5;" cx="211.72" cy="207.423" r="3.773"/>
			</g>
			<g>
				<path style="fill:#D7D7D7;" d="M221.044,240.182h-18.648c-0.723,0-1.31-0.587-1.31-1.31v-16.761c0-0.723,0.587-1.31,1.31-1.31
					h18.648c0.723,0,1.31,0.587,1.31,1.31v16.761C222.354,239.596,221.768,240.182,221.044,240.182z"/>
				<path style="fill:#F5F5F5;" d="M217.38,241.555h-11.32v-6.188c0-0.845,0.685-1.53,1.53-1.53h8.26c0.845,0,1.53,0.685,1.53,1.53
					V241.555z"/>
				<circle style="fill:#F5F5F5;" cx="211.72" cy="228.862" r="3.773"/>
			</g>
			<rect x="225.016" y="202.506" style="fill:#D7D7D7;" width="43.965" height="4.917"/>
			<rect x="225.016" y="211.196" style="fill:#D7D7D7;" width="61.975" height="4.917"/>
			<rect x="225.016" y="223.688" style="fill:#D7D7D7;" width="43.965" height="4.917"/>
			<rect x="225.016" y="232.378" style="fill:#D7D7D7;" width="61.975" height="4.917"/>
		</g>
		<path style="fill:#7D2B20;" d="M280.796,392.244h-61.343c-12.145,0-21.99-9.845-21.99-21.99v-14.682h105.323v14.682
			C302.785,382.399,292.94,392.244,280.796,392.244z"/>
		<g>
			<rect x="146.265" y="328.609" style="fill:#963D2E;" width="207.47" height="26.184"/>
			<g>
				<g>
					<path style="fill:#006F3E;" d="M277.327,388.288h-54.654c-12.426,0-22.5-10.074-22.5-22.5v-37.179h99.654v37.179
						C299.827,378.215,289.753,388.288,277.327,388.288z"/>
				</g>
				<g>
					<polygon style="fill:#FFC809;" points="250,339.023 280.679,359.066 250,377.874 219.321,359.067 					"/>
					<g>
						
							<ellipse transform="matrix(0.1602 -0.9871 0.9871 0.1602 -143.8656 547.8035)" style="fill:#2C458E;" cx="250" cy="358.449" rx="11.253" ry="11.253"/>
						<g>
							<defs>
								
									<ellipse id="SVGID_00000053537511277334652150000001657810019966339464_" transform="matrix(0.1602 -0.9871 0.9871 0.1602 -143.8656 547.8035)" cx="250" cy="358.449" rx="11.253" ry="11.253"/>
							</defs>
							<clipPath id="SVGID_00000168810626907257153330000001266479987261816740_">
								<use xlink:href="#SVGID_00000053537511277334652150000001657810019966339464_"  style="overflow:visible;"/>
							</clipPath>
							<g style="clip-path:url(#SVGID_00000168810626907257153330000001266479987261816740_);">
								<path style="fill:#F5F5F5;" d="M261.974,364.474l-0.154-0.164c-2.079-2.264-10.14-9.652-26.521-9.652v-2.897
									c17.083,0,25.731,7.406,28.654,10.59L261.974,364.474z"/>
							</g>
						</g>
					</g>
				</g>
			</g>
		</g>
	</g>
	<g>
		<g>
			<path style="fill:#B1C4C3;" d="M312.993,125.601h-51.272c-5.501,0-9.96-4.459-9.96-9.96V61.085c0-5.501,4.459-9.96,9.96-9.96
				h51.272c5.501,0,9.96,4.459,9.96,9.96v54.557C322.953,121.142,318.494,125.601,312.993,125.601z"/>
			<g>
				<defs>
					<path id="SVGID_00000135690154943309089360000013109924702914527925_" d="M312.993,125.601h-51.272
						c-5.501,0-9.96-4.459-9.96-9.96V61.085c0-5.501,4.459-9.96,9.96-9.96h51.272c5.501,0,9.96,4.459,9.96,9.96v54.557
						C322.953,121.142,318.494,125.601,312.993,125.601z"/>
				</defs>
				<clipPath id="SVGID_00000010279179003794227000000014003875684197242528_">
					<use xlink:href="#SVGID_00000135690154943309089360000013109924702914527925_"  style="overflow:visible;"/>
				</clipPath>
				<g style="clip-path:url(#SVGID_00000010279179003794227000000014003875684197242528_);">
					<g>
						<g>
							<path style="fill:#7D83C1;" d="M313.683,96.827c-1.34-2.878-15.97-6.049-20.143-6.9c-0.699-0.143-1.105-0.22-1.105-0.22
								l-13.224,1.298c0,0-13.257,3.704-17.619,8.067c-1.397,1.397-3.442,32.871-3.442,32.871h60.537
								C318.688,131.942,315.247,100.187,313.683,96.827z"/>
							<path style="fill:#C44E5D;" d="M290.097,77.516l-1.25-6.518l-10.916,11.428v6.583
								C284.009,88.241,289.077,83.58,290.097,77.516z"/>
							<path style="fill:#F4AFA8;" d="M290.097,77.516c-1.021,6.064-6.089,10.725-12.166,11.492v7.112
								c0,0,14.174,3.848,14.504-6.414L290.097,77.516z"/>
							<path style="fill:#F4AFA8;" d="M272.508,67.162c0,0-2.253,13.977,2.77,17.637c5.023,3.66,16.078-0.301,17.072-9.91
								c0,0,0.419-6.183-1.662-10.582C288.607,59.907,274.73,56.526,272.508,67.162z"/>
							<g>
								<g>
									<path style="fill:#C44E5D;" d="M278.839,77.856c-0.482,0.076-2.081,0.237-2.795-0.803
										c-0.811-1.182,0.752-3.806,0.933-4.101c0.087-0.141,0.271-0.183,0.409-0.098c0.141,0.086,0.185,0.269,0.098,0.409
										c-0.605,0.989-1.398,2.801-0.95,3.453c0.602,0.877,2.298,0.536,2.319,0.534c0.161-0.038,0.319,0.07,0.352,0.23
										c0.034,0.16-0.07,0.318-0.23,0.352C278.964,77.835,278.915,77.844,278.839,77.856z"/>
								</g>
							</g>
							<g>
								<g>
									<g>
										<g>
											<path style="fill:#C44E5D;" d="M283.879,75.438c0.024,0.155,0.17,0.262,0.326,0.237c0.155-0.024,0.262-0.17,0.237-0.326
												c-0.024-0.156-0.17-0.262-0.326-0.237C283.961,75.137,283.855,75.283,283.879,75.438z"/>
										</g>
										<g>
											<path style="fill:#C44E5D;" d="M282.561,76.193c0.022,0.14,0.153,0.235,0.293,0.213c0.14-0.022,0.235-0.153,0.213-0.293
												c-0.022-0.14-0.153-0.235-0.293-0.213C282.634,75.922,282.539,76.053,282.561,76.193z"/>
										</g>
										<g>
											<path style="fill:#C44E5D;" d="M285.186,76.246c0.026,0.169,0.185,0.284,0.353,0.257
												c0.168-0.026,0.284-0.185,0.257-0.353c-0.026-0.169-0.185-0.284-0.353-0.257
												C285.274,75.919,285.159,76.077,285.186,76.246z"/>
										</g>
										<g>
											<path style="fill:#C44E5D;" d="M283.542,77.117c0.026,0.162,0.177,0.272,0.339,0.247
												c0.162-0.025,0.272-0.177,0.247-0.339c-0.025-0.162-0.177-0.273-0.339-0.247
												C283.627,76.803,283.517,76.955,283.542,77.117z"/>
										</g>
									</g>
								</g>
								<g>
									<g>
										<g>
											<path style="fill:#C44E5D;" d="M273.637,76.092c0.021,0.133,0.146,0.225,0.28,0.204c0.134-0.021,0.225-0.146,0.204-0.28
												s-0.146-0.225-0.28-0.204C273.707,75.834,273.616,75.959,273.637,76.092z"/>
										</g>
										<g>
											<path style="fill:#C44E5D;" d="M272.505,76.741c0.019,0.12,0.132,0.202,0.252,0.183c0.12-0.019,0.202-0.132,0.183-0.251
												c-0.019-0.12-0.131-0.202-0.251-0.183C272.568,76.508,272.486,76.621,272.505,76.741z"/>
										</g>
										<g>
											<path style="fill:#C44E5D;" d="M274.759,76.786c0.023,0.145,0.159,0.244,0.303,0.221
												c0.145-0.023,0.244-0.159,0.221-0.303c-0.023-0.145-0.159-0.244-0.303-0.221
												C274.835,76.505,274.737,76.641,274.759,76.786z"/>
										</g>
										<g>
											<path style="fill:#C44E5D;" d="M273.348,77.534c0.022,0.139,0.152,0.234,0.291,0.212
												c0.139-0.022,0.234-0.152,0.212-0.291c-0.022-0.139-0.152-0.234-0.291-0.212
												C273.421,77.265,273.326,77.395,273.348,77.534z"/>
										</g>
									</g>
								</g>
							</g>
							<g>
								<path style="fill:#F4AFA8;" d="M289.614,74.754c0.234,1.488,1.629,2.504,3.117,2.271c1.487-0.234,2.504-1.629,2.27-3.117
									c-0.234-1.488-1.629-2.504-3.116-2.27C290.397,71.871,289.38,73.267,289.614,74.754z"/>
								<path style="fill:#C44E5D;" d="M292.917,74.566c-0.112-0.714-0.783-1.202-1.497-1.09c-0.033,0.005-0.058,0.026-0.09,0.033
									c0.188-0.185,0.417-0.332,0.697-0.376c0.714-0.112,1.384,0.376,1.496,1.09c0.107,0.681-0.339,1.308-1,1.463
									C292.815,75.401,292.985,75,292.917,74.566z"/>
							</g>
							<path style="fill:#FFFFFF;" d="M282.552,79.921c-0.203,1.2-1.215,2.214-2.582,2.429c-1.366,0.215-2.64-0.44-3.202-1.52
								L282.552,79.921z"/>
							<path style="fill:#4F253A;" d="M282.444,73.052c0,0,0.297-0.428,0.544-0.742c-0.232-0.479-0.6-0.779-0.965-0.721
								c-0.515,0.081-0.825,0.833-0.692,1.681c0.133,0.847,0.659,1.468,1.174,1.388c0.443-0.07,0.731-0.635,0.72-1.33
								L282.444,73.052z"/>
							<path style="fill:#4F253A;" d="M274.427,73.673c0,0,0.297-0.428,0.544-0.742c-0.232-0.479-0.6-0.778-0.965-0.721
								c-0.515,0.081-0.825,0.833-0.692,1.681c0.133,0.847,0.659,1.469,1.174,1.388c0.443-0.069,0.731-0.635,0.72-1.33
								L274.427,73.673z"/>
							<path style="fill:#4F253A;" d="M284.871,69.569c0,0-1.847-1.749-3.014-1.608c-1.167,0.141-1.675,2.048-1.675,2.048
								s0.976-1.088,2.1-0.967C283.405,69.162,284.871,69.569,284.871,69.569z"/>
							<path style="fill:#4F253A;" d="M271.131,70.562c0,0,1.186-2.135,2.223-2.275c1.037-0.14,1.912,1.591,1.912,1.591
								s-1.09-0.825-2.029-0.441S271.131,70.562,271.131,70.562z"/>
							<path style="fill:#FFFFFF;" d="M292.435,89.707l-10.241,7.12l-4.263-5.292l-0.694,0.753
								c-1.862,2.021-2.553,4.857-1.831,7.508l8.754,32.145l10.673-33.783c0.961-3.041,0.02-6.362-2.393-8.447L292.435,89.707z"/>
							<polygon style="fill:#7D83C1;" points="280.677,101.008 281.3,128.813 284.445,132.45 288.068,122.009 283.07,101.008 
															"/>
							<path style="fill:#7D83C1;" d="M284.009,98.716l1.119,2.681l-1.233,2.795l-3.314-0.046l-1.366-2.785
								c0,0,0.796-2.984,1.183-2.933c0.289,0.038,2.061-0.072,2.935-0.13C283.625,98.278,283.896,98.446,284.009,98.716z"/>
						</g>
						<path style="fill:#4F253A;" d="M289.614,74.754c0,0,1.281-3.147,2.822-3.147c1.54,0,4.297-8.516-0.051-10.979
							c-2.258-1.28-1.949-4.576-8.509-4.576c-6.559,0-11.672,2.832-12.745,1.76c0,0-0.272,5.043,1.372,6.687
							c1.644,1.644,14.316,0.117,14.316,0.117s-0.844,3.853,1.249,5.946C288.068,70.562,288.655,74.754,289.614,74.754z"/>
					</g>
					<path style="fill:#4F253A;" d="M291.916,60.304c0,0-3.05-4.33-6.116-4.877c-3.066-0.547-4.5,0.626-4.5,0.626
						s-2.791-1.408-5.489-1.408c-2.698,0-3.089,2.19-3.089,2.19s-3.519-2.581-5.084,0.235s-0.186,8.291,4.365,9.62
						c4.551,1.33,6.505-1.445,6.505-1.445s5.561,2.121,8.309-0.627S291.916,60.304,291.916,60.304z"/>
					<path style="fill:#4F253A;" d="M284.445,78.93c0,0-3.667-2.631-5.583-0.469c0,0-1.778-0.428-3.197,0.718
						c-1.291,1.042-1.42,1.189-2.066,1.57c0,0,4.301,0.008,5.423-1.115C279.022,79.634,281.523,80.22,284.445,78.93z"/>
				</g>
			</g>
		</g>
		<g>
			<path style="fill:#B1C4C3;" d="M110.764,125.601h51.272c5.501,0,9.96-4.459,9.96-9.96V61.085c0-5.501-4.459-9.96-9.96-9.96
				h-51.272c-5.501,0-9.96,4.459-9.96,9.96v54.557C100.804,121.142,105.263,125.601,110.764,125.601z"/>
			<g>
				<defs>
					<path id="SVGID_00000032616184482699028150000004593413134038812852_" d="M110.738,125.584l51.272,0.036
						c5.501,0.004,9.963-4.452,9.967-9.953l0.038-54.557c0.004-5.501-4.452-9.963-9.953-9.967l-51.272-0.036
						c-5.501-0.004-9.963,4.452-9.967,9.953l-0.038,54.557C100.781,121.117,105.237,125.58,110.738,125.584z"/>
				</defs>
				<clipPath id="SVGID_00000124875645718180885540000010255689952289057416_">
					<use xlink:href="#SVGID_00000032616184482699028150000004593413134038812852_"  style="overflow:visible;"/>
				</clipPath>
				<g style="clip-path:url(#SVGID_00000124875645718180885540000010255689952289057416_);">
					<path style="fill:#4F253A;" d="M129.764,87.88c0,0-0.406,0.077-1.105,0.219c-4.173,0.848-18.806,4.009-20.147,6.886
						c-1.567,3.359-5.03,35.112-5.03,35.112l60.537,0.042c0,0-2.022-31.475-3.418-32.874c-1.396-1.398-17.614-8.079-17.614-8.079"/>
					<path style="fill:#F4AFA8;" d="M144.274,80.608l-0.01,13.695c0,0-14.176,3.838-14.5-6.424l3.601-18.707L144.274,80.608z"/>
					<path style="fill:#F4AFA8;" d="M149.707,65.348c0,0,2.243,13.979-2.782,17.635c-5.026,3.656-16.078-0.312-17.065-9.922
						c0,0-0.415-6.183,1.669-10.581S147.493,54.711,149.707,65.348z"/>
					<g>
						<g>
							<path style="fill:#C44E5D;" d="M143.369,76.039c0.482,0.076,2.08,0.238,2.796-0.801c0.812-1.181-0.749-3.806-0.93-4.102
								c-0.087-0.141-0.271-0.183-0.409-0.099c-0.14,0.085-0.185,0.269-0.099,0.409c0.605,0.989,1.396,2.801,0.947,3.454
								c-0.603,0.877-2.299,0.534-2.32,0.532c-0.161-0.038-0.319,0.07-0.352,0.23c-0.034,0.16,0.07,0.318,0.23,0.352
								C143.245,76.017,143.293,76.027,143.369,76.039z"/>
						</g>
					</g>
					<g>
						<g>
							<g>
								<g>
									<path style="fill:#C44E5D;" d="M138.331,73.617c-0.024,0.155-0.17,0.262-0.326,0.237c-0.155-0.024-0.262-0.17-0.237-0.326
										c0.025-0.155,0.17-0.262,0.326-0.237C138.249,73.316,138.355,73.462,138.331,73.617z"/>
								</g>
								<g>
									<path style="fill:#C44E5D;" d="M139.648,74.373c-0.022,0.14-0.153,0.235-0.293,0.213c-0.14-0.022-0.235-0.153-0.213-0.293
										c0.022-0.14,0.153-0.235,0.293-0.213C139.575,74.102,139.67,74.233,139.648,74.373z"/>
								</g>
								<g>
									<path style="fill:#C44E5D;" d="M137.024,74.424c-0.027,0.169-0.185,0.284-0.353,0.257
										c-0.169-0.027-0.284-0.185-0.257-0.353c0.027-0.169,0.185-0.284,0.353-0.257C136.935,74.097,137.05,74.255,137.024,74.424z
										"/>
								</g>
								<g>
									<path style="fill:#C44E5D;" d="M138.667,75.296c-0.025,0.162-0.178,0.272-0.339,0.247
										c-0.162-0.025-0.272-0.177-0.247-0.339c0.025-0.162,0.177-0.272,0.339-0.247C138.582,74.982,138.692,75.134,138.667,75.296
										z"/>
								</g>
							</g>
						</g>
						<g>
							<g>
								<g>
									<path style="fill:#C44E5D;" d="M148.572,74.278c-0.021,0.134-0.146,0.225-0.28,0.204c-0.133-0.021-0.225-0.146-0.203-0.28
										c0.021-0.133,0.146-0.225,0.28-0.204C148.502,74.02,148.593,74.145,148.572,74.278z"/>
								</g>
								<g>
									<path style="fill:#C44E5D;" d="M149.704,74.927c-0.019,0.12-0.132,0.202-0.252,0.183c-0.12-0.019-0.202-0.132-0.183-0.252
										c0.019-0.12,0.132-0.202,0.252-0.183C149.641,74.695,149.723,74.807,149.704,74.927z"/>
								</g>
								<g>
									<path style="fill:#C44E5D;" d="M147.45,74.971c-0.023,0.145-0.159,0.244-0.303,0.221c-0.145-0.023-0.244-0.159-0.221-0.303
										c0.023-0.145,0.159-0.244,0.303-0.221C147.374,74.69,147.473,74.826,147.45,74.971z"/>
								</g>
								<g>
									<path style="fill:#C44E5D;" d="M148.861,75.72c-0.022,0.139-0.152,0.234-0.292,0.212c-0.139-0.022-0.234-0.152-0.212-0.291
										c0.022-0.139,0.153-0.234,0.292-0.212C148.788,75.451,148.883,75.581,148.861,75.72z"/>
								</g>
							</g>
						</g>
					</g>
					<g>
						<path style="fill:#F4AFA8;" d="M132.596,72.929c-0.235,1.487-1.631,2.503-3.118,2.268c-1.487-0.235-2.503-1.631-2.268-3.118
							c0.235-1.487,1.631-2.503,3.118-2.268C131.816,70.046,132.831,71.441,132.596,72.929z"/>
						<path style="fill:#C44E5D;" d="M129.293,72.739c0.113-0.714,0.783-1.202,1.497-1.089c0.033,0.005,0.058,0.026,0.09,0.033
							c-0.188-0.185-0.417-0.332-0.697-0.376c-0.714-0.113-1.384,0.375-1.497,1.089c-0.107,0.681,0.339,1.308,0.999,1.464
							C129.395,73.574,129.225,73.173,129.293,72.739z"/>
					</g>
					<path style="fill:#4F253A;" d="M129.745,59.625c3.86-9.748,15.246-1.592,18.272-1.114c3.026,0.477,2.854-1.951,2.854-1.951
						s2.93,2.714,0.702,6.51c-2.227,3.796-17.308-0.724-17.308-0.724c0.689,3.079-1.111,6.722-2.229,8.6
						c0.704,1.858,1.921,4.682,3.011,5.293c1.655,0.928,7.859-0.645,11.44,0.596c3.581,1.24,6.053,3.17,4.745,8.611
						c-1.309,5.441-7.738,4.952-13.8,1.443c-6.063-3.508-7.331-12.132-7.331-12.132l-0.31-2.932
						c-1.612-0.624-4.006-2.232-3.992-6.305C125.82,59.386,129.745,59.625,129.745,59.625z"/>
					<path style="fill:#FFFFFF;" d="M139.654,78.101c0.202,1.2,1.213,2.215,2.58,2.43c1.366,0.216,2.64-0.438,3.203-1.518
						L139.654,78.101z"/>
					<path style="fill:#4F253A;" d="M139.767,71.231c0,0-0.297-0.428-0.544-0.743c0.232-0.479,0.6-0.778,0.966-0.72
						c0.515,0.081,0.824,0.834,0.691,1.681c-0.134,0.847-0.66,1.468-1.175,1.387c-0.443-0.07-0.731-0.636-0.72-1.331L139.767,71.231
						z"/>
					<path style="fill:#4F253A;" d="M147.784,71.859c0,0-0.297-0.428-0.544-0.743c0.232-0.479,0.6-0.778,0.966-0.72
						c0.515,0.081,0.824,0.834,0.691,1.681c-0.134,0.847-0.66,1.468-1.175,1.387c-0.443-0.07-0.731-0.636-0.72-1.331L147.784,71.859
						z"/>
					<path style="fill:#4F253A;" d="M137.343,67.747c0,0,1.848-1.748,3.015-1.606s1.674,2.049,1.674,2.049s-0.975-1.089-2.099-0.969
						C138.809,67.341,137.343,67.747,137.343,67.747z"/>
					<path style="fill:#4F253A;" d="M151.082,68.75c0,0-1.185-2.136-2.221-2.276c-1.037-0.14-1.913,1.589-1.913,1.589
						s1.09-0.824,2.029-0.44C149.915,68.007,151.082,68.75,151.082,68.75z"/>
					<path style="fill:#FFFFFF;" d="M129.764,87.88l10.236,7.127l4.267-5.289l1.904,2.252c1.068,1.263,1.445,2.97,1.01,4.566
						l-9.171,33.585l-11.236-35.65c-0.603-1.913-0.01-4.001,1.508-5.312L129.764,87.88z"/>
					<polygon style="fill:#4F253A;" points="141.516,99.189 140.872,126.994 137.725,130.629 134.11,120.185 139.122,99.188 					
						"/>
					<path style="fill:#4F253A;" d="M138.185,96.895l-1.121,2.68l1.232,2.796l3.314-0.044l1.368-2.784c0,0-0.794-2.985-1.181-2.934
						c-0.289,0.038-2.061-0.074-2.935-0.132C138.569,96.457,138.298,96.625,138.185,96.895z"/>
				</g>
			</g>
		</g>
		<g>
			<path style="fill:#B1C4C3;" d="M388.465,125.601h-51.272c-5.501,0-9.96-4.459-9.96-9.96V61.085c0-5.501,4.459-9.96,9.96-9.96
				h51.272c5.501,0,9.96,4.459,9.96,9.96v54.557C398.425,121.142,393.965,125.601,388.465,125.601z"/>
			<g>
				<defs>
					<path id="SVGID_00000091003012910463375620000009060929837759037580_" d="M388.465,125.601h-51.272
						c-5.501,0-9.96-4.459-9.96-9.96V61.085c0-5.501,4.459-9.96,9.96-9.96h51.272c5.501,0,9.96,4.459,9.96,9.96v54.557
						C398.425,121.142,393.965,125.601,388.465,125.601z"/>
				</defs>
				<clipPath id="SVGID_00000056387347017529309540000015447933119407155624_">
					<use xlink:href="#SVGID_00000091003012910463375620000009060929837759037580_"  style="overflow:visible;"/>
				</clipPath>
				<g style="clip-path:url(#SVGID_00000056387347017529309540000015447933119407155624_);">
					<g>
						<path style="fill:#0172BD;" d="M390.711,94.41c-1.34-2.878-15.97-6.049-20.143-6.9c-0.699-0.143-1.105-0.22-1.105-0.22
							l-13.224,1.298c0,0-13.257,3.704-17.619,8.067c-1.397,1.397-3.442,32.871-3.442,32.871h60.537
							C395.717,129.525,392.276,97.77,390.711,94.41z"/>
						<path style="fill:#C44E5D;" d="M367.126,75.099l-1.25-6.518L354.96,80.008v6.583
							C361.037,85.824,366.105,81.164,367.126,75.099z"/>
						<path style="fill:#F4AFA8;" d="M367.126,75.099c-1.021,6.065-6.089,10.725-12.166,11.492v7.112c0,0,14.174,3.848,14.504-6.414
							L367.126,75.099z"/>
						<path style="fill:#F4AFA8;" d="M349.537,64.745c0,0-2.253,13.977,2.77,17.637c5.023,3.66,16.079-0.301,17.072-9.91
							c0,0,0.419-6.182-1.662-10.582C365.635,57.49,351.759,54.109,349.537,64.745z"/>
						<g>
							<g>
								<path style="fill:#C44E5D;" d="M355.868,75.44c-0.482,0.076-2.081,0.237-2.795-0.803c-0.811-1.182,0.752-3.806,0.933-4.101
									c0.087-0.141,0.271-0.183,0.409-0.098c0.14,0.086,0.185,0.269,0.098,0.409c-0.605,0.989-1.398,2.801-0.95,3.453
									c0.602,0.877,2.298,0.536,2.319,0.534c0.161-0.038,0.319,0.07,0.352,0.23c0.033,0.161-0.07,0.318-0.23,0.352
									C355.992,75.418,355.944,75.428,355.868,75.44z"/>
							</g>
						</g>
						<g>
							<g>
								<g>
									<g>
										<path style="fill:#C44E5D;" d="M360.908,73.021c0.024,0.156,0.17,0.262,0.326,0.237c0.156-0.024,0.262-0.17,0.237-0.326
											c-0.024-0.156-0.17-0.262-0.326-0.237C360.99,72.72,360.883,72.866,360.908,73.021z"/>
									</g>
									<g>
										<path style="fill:#C44E5D;" d="M359.59,73.776c0.022,0.14,0.153,0.235,0.293,0.213c0.14-0.022,0.235-0.153,0.213-0.293
											c-0.022-0.14-0.153-0.235-0.293-0.213C359.663,73.505,359.568,73.636,359.59,73.776z"/>
									</g>
									<g>
										<path style="fill:#C44E5D;" d="M362.214,73.829c0.027,0.169,0.185,0.284,0.353,0.257c0.169-0.026,0.284-0.185,0.257-0.353
											c-0.026-0.169-0.185-0.284-0.353-0.257C362.303,73.502,362.188,73.66,362.214,73.829z"/>
									</g>
									<g>
										<path style="fill:#C44E5D;" d="M360.571,74.7c0.025,0.162,0.177,0.273,0.339,0.247c0.162-0.025,0.272-0.177,0.247-0.339
											c-0.025-0.162-0.177-0.272-0.339-0.247C360.656,74.386,360.545,74.538,360.571,74.7z"/>
									</g>
								</g>
							</g>
							<g>
								<g>
									<g>
										<path style="fill:#C44E5D;" d="M350.666,73.676c0.021,0.133,0.146,0.225,0.28,0.204c0.134-0.021,0.225-0.146,0.204-0.28
											c-0.021-0.133-0.146-0.225-0.28-0.204C350.736,73.417,350.645,73.542,350.666,73.676z"/>
									</g>
									<g>
										<path style="fill:#C44E5D;" d="M349.534,74.324c0.019,0.12,0.132,0.202,0.252,0.183c0.12-0.019,0.202-0.132,0.183-0.252
											c-0.019-0.12-0.132-0.202-0.252-0.183C349.597,74.091,349.515,74.204,349.534,74.324z"/>
									</g>
									<g>
										<path style="fill:#C44E5D;" d="M351.788,74.369c0.023,0.145,0.159,0.244,0.303,0.221c0.145-0.023,0.244-0.159,0.221-0.303
											c-0.023-0.145-0.158-0.244-0.303-0.221C351.864,74.088,351.765,74.224,351.788,74.369z"/>
									</g>
									<g>
										<path style="fill:#C44E5D;" d="M350.376,75.117c0.022,0.139,0.152,0.234,0.291,0.212s0.234-0.152,0.212-0.291
											c-0.022-0.139-0.152-0.234-0.291-0.212C350.45,74.848,350.355,74.978,350.376,75.117z"/>
									</g>
								</g>
							</g>
						</g>
						<g>
							<path style="fill:#F4AFA8;" d="M366.643,72.337c0.234,1.487,1.629,2.504,3.116,2.27c1.488-0.234,2.504-1.629,2.271-3.116
								c-0.234-1.488-1.629-2.504-3.116-2.271C367.426,69.454,366.409,70.85,366.643,72.337z"/>
							<path style="fill:#C44E5D;" d="M369.946,72.15c-0.112-0.714-0.783-1.202-1.496-1.09c-0.033,0.005-0.058,0.026-0.09,0.033
								c0.188-0.185,0.417-0.332,0.697-0.376c0.714-0.112,1.384,0.376,1.496,1.09c0.107,0.681-0.339,1.308-1,1.463
								C369.844,72.984,370.014,72.583,369.946,72.15z"/>
						</g>
						<path style="fill:#FFFFFF;" d="M359.581,77.504c-0.203,1.2-1.214,2.214-2.582,2.429c-1.366,0.215-2.64-0.44-3.202-1.52
							L359.581,77.504z"/>
						<path style="fill:#4F253A;" d="M359.473,70.635c0,0,0.297-0.428,0.544-0.742c-0.232-0.479-0.6-0.778-0.965-0.721
							c-0.515,0.081-0.825,0.833-0.692,1.681c0.133,0.847,0.659,1.469,1.174,1.388c0.443-0.07,0.731-0.635,0.72-1.33L359.473,70.635
							z"/>
						<path style="fill:#4F253A;" d="M351.456,71.257c0,0,0.297-0.428,0.544-0.742c-0.232-0.479-0.6-0.778-0.965-0.721
							c-0.515,0.081-0.825,0.833-0.692,1.681c0.133,0.847,0.659,1.469,1.174,1.388c0.443-0.07,0.731-0.635,0.72-1.33L351.456,71.257
							z"/>
						<path style="fill:#4F253A;" d="M361.9,67.152c0,0-1.847-1.749-3.014-1.608s-1.675,2.048-1.675,2.048s0.976-1.088,2.1-0.967
							C360.434,66.745,361.9,67.152,361.9,67.152z"/>
						<path style="fill:#4F253A;" d="M348.159,68.146c0,0,1.187-2.135,2.223-2.275c1.037-0.14,1.912,1.591,1.912,1.591
							s-1.09-0.825-2.029-0.442C349.327,67.403,348.159,68.146,348.159,68.146z"/>
						<path style="fill:#FFFFFF;" d="M369.464,87.29l-10.241,7.12l-4.263-5.292l-0.693,0.753c-1.862,2.021-2.553,4.857-1.831,7.508
							l8.754,32.146l10.673-33.783c0.961-3.041,0.02-6.362-2.392-8.447L369.464,87.29z"/>
						<polygon style="fill:#0172BD;" points="357.705,98.592 358.329,126.396 361.474,130.033 365.096,119.592 360.099,98.592 
													"/>
						<path style="fill:#0172BD;" d="M361.037,96.299l1.119,2.68l-1.233,2.795l-3.314-0.046l-1.366-2.785
							c0,0,0.796-2.984,1.183-2.933c0.289,0.038,2.061-0.072,2.935-0.13C360.653,95.861,360.925,96.029,361.037,96.299z"/>
					</g>
					<path style="fill:#4F253A;" d="M366.643,72.337c0,0,1.281-3.147,2.821-3.147s4.297-8.516-0.051-10.979
						c-2.258-1.279-1.949-4.575-8.509-4.575s-11.672,2.832-12.745,1.76c0,0-0.272,5.043,1.372,6.687s14.316,0.117,14.316,0.117
						s-0.844,3.853,1.249,5.946C365.096,68.146,365.684,72.337,366.643,72.337z"/>
				</g>
			</g>
		</g>
		<g>
			<path style="fill:#B1C4C3;" d="M237.503,125.601h-51.272c-5.501,0-9.96-4.459-9.96-9.96V61.085c0-5.501,4.459-9.96,9.96-9.96
				h51.272c5.501,0,9.96,4.459,9.96,9.96v54.557C247.463,121.142,243.003,125.601,237.503,125.601z"/>
			<g>
				<defs>
					<path id="SVGID_00000161623976624564473760000007897199651595261360_" d="M237.503,125.601h-51.272
						c-5.501,0-9.96-4.459-9.96-9.96V61.085c0-5.501,4.459-9.96,9.96-9.96h51.272c5.501,0,9.96,4.459,9.96,9.96v54.557
						C247.463,121.142,243.003,125.601,237.503,125.601z"/>
				</defs>
				<clipPath id="SVGID_00000088125672935049847720000001787419839353415836_">
					<use xlink:href="#SVGID_00000161623976624564473760000007897199651595261360_"  style="overflow:visible;"/>
				</clipPath>
				<g style="clip-path:url(#SVGID_00000088125672935049847720000001787419839353415836_);">
					<path style="fill:#C94542;" d="M229.3,79.548c0,0,5.414-7.219,3.415-13.783c-1.999-6.564-8.003-10.755-19.276-7.531
						c-11.273,3.224-10.191,13.66-12.567,16.796c-2.376,3.135-9.609,1.378-13.283,6.239c-3.674,4.861,0.184,9.433,0.184,9.433
						s-6.78,1.096-5.143,6.562c1.637,5.466,7.476,8.413,16.793,6.644c9.318-1.769,18.208-19.626,18.77-19.892
						C218.755,83.749,229.3,79.548,229.3,79.548z"/>
					<path style="fill:#5E7EA5;" d="M223.255,96.01c-0.726-0.747-1.623-1.304-2.625-1.59c-4.099-1.171-15.553-3.448-23.632,4.63
						c-9.997,9.996-10.686,32.747-15.512,42.398c0,0,12.409,11.031,30.334,9.652c17.925-1.379,19.303-4.826,19.303-4.826
						s-2.758-12.065,1.034-16.546C235.862,125.352,238.251,111.434,223.255,96.01z"/>
					<path style="fill:#FFFFFF;" d="M209.719,93.318c0,0,17.392,32.043,19.05,32.043c1.658,0,0.821-26.866-8.528-31.048
						S209.719,93.318,209.719,93.318z"/>
					<path style="fill:#FFCFC2;" d="M222.506,86.469l-2.265,7.844c0,0,5.367,7.723,5.367,10.108
						c0,2.386-15.889-11.103-15.889-11.103l4.169-11.33L222.506,86.469z"/>
					<path style="fill:#F7B5A6;" d="M213.15,83.996c1.665,2.153,5.366,6.713,7.763,7.991l1.593-5.518l-8.618-4.481L213.15,83.996z"
						/>
					<path style="fill:#FFCFC2;" d="M212.493,76.56c0,0-5.584-5.871-6.239-0.218c-0.655,5.652,5.418,4.627,5.418,4.627
						s6.428,8.433,12.867,7.288c6.439-1.146,7.831-8.258,6.46-13.162c-1.371-4.904,1.271-7.478-1.694-9.829
						C226.34,62.913,214.945,59.848,212.493,76.56z"/>
					<path style="fill:#C94542;" d="M224.689,62.397c0,0-0.747,3.619-2.183,5.056c-1.436,1.436-3.102-0.345-3.102-0.345
						s-0.345,5.171-2.987,6.435c-2.643,1.264-3.907-1.149-3.907-1.149v-4.241l2.183-5.756H224.689z"/>
					<path style="fill:#C94542;" d="M227.935,69.406c0,0,1.207-0.862,2.413-0.862c1.206,0,1.13,2.068,1.13,2.068h-0.849
						C230.63,70.613,231.383,68.544,227.935,69.406z"/>
					<path style="fill:#C94542;" d="M222.506,69.098c0,0-2.197-1.709-3.907,0v1.514C218.6,70.613,219.835,68.237,222.506,69.098z"/>
					<path style="fill:#3B3B54;" d="M222.937,73.909c0,1.071-0.463,1.939-1.034,1.939c-0.571,0-1.034-0.868-1.034-1.939
						c0-1.071,0.463-1.939,1.034-1.939C222.474,71.97,222.937,72.838,222.937,73.909z"/>
					<path style="fill:#3B3B54;" d="M230.004,73.392c0,1.071-0.463,1.939-1.034,1.939c-0.571,0-1.034-0.868-1.034-1.939
						c0-1.071,0.463-1.939,1.034-1.939C229.541,71.453,230.004,72.321,230.004,73.392z"/>
					<path style="fill:#F7B5A6;" d="M226.126,71.97c0,0,0.336,3.098,1.149,3.911c0.813,0.813,2.017,0.189,2.017,0.936
						c0,0.747-0.581,2.068-2.017,2.355c0,0,1.695-1.465,1.206-1.953C227.993,76.731,226.126,78.095,226.126,71.97z"/>
					<path style="fill:#F7B5A6;" d="M209.824,75.677c-1.082-0.192-3.186,0.972-2.112,2.228c0.014,0.016,0.036,0.002,0.038-0.016
						c0.12-1.128,1.585-1.973,2.499-1.056c0.066,0.066,0.125,0.15,0.189,0.224c-0.039,0.004-0.081,0.002-0.117,0.009
						c-0.57,0.113-0.963,0.536-1.31,0.969c-0.047,0.058,0.013,0.159,0.086,0.112c0.351-0.227,0.738-0.508,1.166-0.547
						c0.225-0.021,0.422,0.059,0.627,0.069c0.346,0.546,0.616,1.164,0.687,1.731c0.006,0.045,0.073,0.08,0.098,0.026
						C212.297,78.084,211.337,75.945,209.824,75.677z"/>
					<path style="fill:#FFFFFF;" d="M221.775,73.435c0,0.464-0.273,0.84-0.611,0.84c-0.337,0-0.611-0.376-0.611-0.84
						c0-0.464,0.274-0.84,0.611-0.84C221.501,72.594,221.775,72.971,221.775,73.435z"/>
					<ellipse style="fill:#FFFFFF;" cx="228.159" cy="73.068" rx="0.611" ry="0.84"/>
					<path style="fill:#C94542;" d="M227.176,81.252c-1.685-0.059-3.835,0.009-5.252-1.082c0.143-0.141,0.326-0.228,0.539-0.194
						c0.057,0.009,0.096-0.064,0.041-0.098c-0.315-0.191-0.679-0.218-0.955,0.059c-0.274,0.276-0.275,0.615-0.024,0.898
						c0.036,0.04,0.09,0.004,0.096-0.04c0.02-0.177,0.096-0.365,0.21-0.519c1.071,1.637,3.698,1.583,5.349,1.01
						C227.199,81.281,227.196,81.253,227.176,81.252z"/>
				</g>
			</g>
		</g>
		<rect x="153.7" y="129.129" style="fill:#0172BD;" width="4.948" height="19.44"/>
		<rect x="146.68" y="129.129" style="fill:#EC4D4A;" width="4.948" height="19.44"/>
		<rect x="139.66" y="131.649" style="fill:#0172BD;" width="4.948" height="16.92"/>
		<rect x="132.64" y="138.849" style="fill:#EC4D4A;" width="4.948" height="9.72"/>
		<rect x="125.62" y="130.929" style="fill:#EC4D4A;" width="4.948" height="17.64"/>
		<rect x="118.6" y="138.849" style="fill:#0172BD;" width="4.948" height="9.72"/>
		<rect x="111.58" y="135.429" style="fill:#F24C4B;" width="4.948" height="13.14"/>
		<rect x="230.306" y="129.129" style="fill:#EC4D4A;" width="4.948" height="19.44"/>
		<rect x="223.286" y="143.08" style="fill:#0172BD;" width="4.948" height="5.489"/>
		<rect x="216.266" y="131.649" style="fill:#EC4D4A;" width="4.948" height="16.92"/>
		<rect x="209.246" y="138.849" style="fill:#0172BD;" width="4.948" height="9.72"/>
		<rect x="202.226" y="130.929" style="fill:#EC4D4A;" width="4.948" height="17.64"/>
		<rect x="195.206" y="138.849" style="fill:#F24C4B;" width="4.948" height="9.72"/>
		<rect x="188.186" y="135.429" style="fill:#F24C4B;" width="4.948" height="13.14"/>
		<rect x="306.912" y="143.08" style="fill:#EC4D4A;" width="4.948" height="5.489"/>
		<rect x="299.892" y="129.129" style="fill:#0172BD;" width="4.948" height="19.44"/>
		<rect x="292.872" y="131.649" style="fill:#EC4D4A;" width="4.948" height="16.92"/>
		<rect x="285.852" y="138.849" style="fill:#EC4D4A;" width="4.948" height="9.72"/>
		<rect x="278.832" y="130.929" style="fill:#0172BD;" width="4.948" height="17.64"/>
		<rect x="271.812" y="138.849" style="fill:#F24C4B;" width="4.948" height="9.72"/>
		<rect x="264.792" y="135.429" style="fill:#F24C4B;" width="4.948" height="13.14"/>
		<rect x="383.518" y="129.129" style="fill:#EC4D4A;" width="4.948" height="19.44"/>
		<rect x="376.498" y="129.129" style="fill:#0172BD;" width="4.948" height="19.44"/>
		<rect x="369.478" y="131.649" style="fill:#EC4D4A;" width="4.948" height="16.92"/>
		<rect x="362.458" y="138.849" style="fill:#EC4D4A;" width="4.948" height="9.72"/>
		<rect x="355.438" y="141.999" style="fill:#EC4D4A;" width="4.948" height="6.57"/>
		<rect x="348.418" y="144.7" style="fill:#0172BD;" width="4.948" height="3.869"/>
		<rect x="341.398" y="137.68" style="fill:#F24C4B;" width="4.948" height="10.889"/>
	</g>
	<g>
		<polygon style="fill:#0172BD;" points="431.704,282.432 428.116,288.98 438.321,288.17 		"/>
		<polygon style="fill:#EE2162;" points="224.158,22.732 215.973,17.364 215.973,30.783 		"/>
		<polygon style="fill:#203C80;" points="425.657,326 421.903,323.953 418.491,323.953 418.491,329.072 		"/>
		<polygon style="fill:#203C80;" points="299.402,27.4 295.649,25.353 292.237,25.353 292.237,30.472 		"/>
		<polygon style="fill:#EE2162;" points="472.761,88.036 466.517,83.942 466.517,94.179 		"/>
		<polygon style="fill:#203C80;" points="432.971,118.423 429.218,116.375 425.805,116.375 425.805,121.494 		"/>
		<polygon style="fill:#EE2162;" points="100.203,263.298 93.727,259.052 93.727,269.668 		"/>
		<g>
			<g>
				<path style="fill:#FF8802;" d="M22.603,286.714c-0.377,0-0.755-0.144-1.043-0.432c-3.946-3.946-1.666-11.458,1.572-14.697
					c0.459-0.461,0.942-0.84,1.436-1.13c2.487-2.881,7.995-2.969,8.65-2.969c0.814,0,1.473,0.66,1.473,1.473
					c0.001,0.814-0.658,1.474-1.472,1.476c-0.685,0.001-2.084,0.108-3.442,0.445c0.079,0.069,0.157,0.144,0.236,0.223
					c2.472,2.473,2.534,5.374,1.836,7.106c-0.59,1.47-1.809,2.4-3.177,2.428c-0.019,0-0.04,0-0.06,0
					c-1.047,0-2.969-0.539-4.524-3.995c-0.14-0.311-0.256-0.612-0.351-0.901c-1.449,2.737-2,6.548-0.092,8.456
					c0.576,0.576,0.576,1.509,0,2.085C23.358,286.57,22.98,286.714,22.603,286.714z M26.53,272.778
					c-0.192,0.36-0.432,1.142,0.249,2.655c0.834,1.853,1.601,2.255,1.833,2.255c0,0,0.002,0,0.003,0
					c0.131-0.003,0.35-0.206,0.501-0.579c0.39-0.971,0.174-2.559-1.186-3.921c-0.498-0.498-0.88-0.51-1.145-0.474
					C26.703,272.728,26.618,272.748,26.53,272.778z"/>
			</g>
		</g>
		<g>
			<g>
				<path style="fill:#EC4D4A;" d="M149.295,35.399c-0.377,0-0.755-0.144-1.042-0.432c-3.946-3.945-1.666-11.458,1.572-14.696
					c0.459-0.461,0.942-0.84,1.436-1.13c2.487-2.881,7.995-2.969,8.65-2.969c0.814,0,1.473,0.66,1.473,1.473
					c0.001,0.814-0.658,1.474-1.472,1.476c-0.686,0.002-2.084,0.108-3.442,0.445c0.079,0.069,0.157,0.144,0.236,0.223
					c2.472,2.472,2.534,5.374,1.836,7.106c-0.59,1.47-1.809,2.4-3.177,2.428c-0.019,0-0.04,0-0.061,0
					c-1.047,0-2.969-0.538-4.524-3.995c-0.14-0.311-0.256-0.612-0.351-0.901c-1.449,2.737-2,6.548-0.092,8.456
					c0.576,0.576,0.576,1.509,0,2.085C150.05,35.255,149.672,35.399,149.295,35.399z M153.222,21.463
					c-0.191,0.36-0.432,1.142,0.249,2.655c0.834,1.853,1.601,2.255,1.833,2.255c0,0,0.001,0,0.003,0
					c0.131-0.003,0.35-0.206,0.501-0.579c0.39-0.971,0.174-2.559-1.186-3.921c-0.498-0.498-0.88-0.51-1.145-0.474
					C153.395,21.413,153.31,21.433,153.222,21.463z"/>
			</g>
		</g>
		<path style="fill:#FF728B;" d="M39.646,237.668c0,0-0.354-8.493-6.37-8.493l-3.539,4.247c0,0,4.954,2.123,4.954,7.078
			L39.646,237.668z"/>
		<polygon style="fill:#203C80;" points="47.304,304.027 40.697,300.423 34.692,300.423 34.692,309.432 		"/>
		<g>
			<g>
				<path style="fill:#FF8802;" d="M472.427,337.221c0.273-0.176,0.613-0.248,0.956-0.175c4.697,1.01,6.558,7.508,5.729,11.363
					c-0.117,0.548-0.289,1.047-0.51,1.488c-0.452,3.246-4.395,5.882-4.869,6.188c-0.588,0.38-1.374,0.211-1.754-0.377
					c-0.381-0.588-0.213-1.374,0.375-1.755c0.495-0.321,1.456-1.052,2.281-1.93c-0.09-0.013-0.181-0.031-0.275-0.051
					c-2.943-0.633-4.343-2.702-4.648-4.282c-0.26-1.339,0.187-2.581,1.163-3.24c0.014-0.009,0.029-0.019,0.044-0.028
					c0.757-0.489,2.399-0.998,5.138,0.775c0.246,0.16,0.471,0.323,0.675,0.488c-0.231-2.657-1.612-5.67-3.883-6.158
					c-0.686-0.147-1.122-0.822-0.974-1.508C471.949,337.677,472.154,337.397,472.427,337.221z M476.098,349.134
					c-0.03-0.35-0.221-1.028-1.421-1.804c-1.469-0.951-2.211-0.883-2.379-0.775c0,0-0.001,0.001-0.002,0.001
					c-0.093,0.063-0.157,0.312-0.092,0.653c0.171,0.884,1.069,1.932,2.69,2.281c0.593,0.128,0.875-0.042,1.049-0.192
					C475.996,349.251,476.048,349.197,476.098,349.134z"/>
			</g>
		</g>
		<polygon style="fill:#EE2162;" points="411.785,241.505 404.289,236.589 404.289,248.879 		"/>
		<path style="fill:#75C9BB;" d="M466.551,254.45c0,0-0.41-9.832-7.374-9.832l-4.097,4.916c0,0,5.735,2.458,5.735,8.193
			L466.551,254.45z"/>
		<polygon style="fill:#FF8802;" points="379.77,261.716 375.263,259.258 371.166,259.258 371.166,265.403 		"/>
		<polygon style="fill:#FFC809;" points="83.39,118.18 77.38,113.811 77.38,124.733 		"/>
		<path style="fill:#FF728B;" d="M66.968,28.698c0,0-0.328-8.738-5.912-8.738l-3.284,4.369c0,0,4.598,2.185,4.598,7.282
			L66.968,28.698z"/>
		<path style="fill:#FFC809;" d="M371.915,30.774c0,0,3.691-7.927-1.278-10.472l-4.915,2.391c0,0,3.097,4.041,0.773,8.577
			L371.915,30.774z"/>
		<polygon style="fill:#FF8802;" points="48.95,77.436 42.243,59.228 33.045,68.216 		"/>
		<polygon style="fill:#0172BD;" points="439.989,58.513 450.505,49.748 438.321,45.634 		"/>
	</g>
	<g>
		<defs>
			<rect id="SVGID_00000171701498169682200450000001360257404053209504_" y="0.03" width="500" height="500"/>
		</defs>
		<clipPath id="SVGID_00000154400650177462892360000015792666908291281573_">
			<use xlink:href="#SVGID_00000171701498169682200450000001360257404053209504_"  style="overflow:visible;"/>
		</clipPath>
		<g style="clip-path:url(#SVGID_00000154400650177462892360000015792666908291281573_);">
			<g>
				<polygon style="fill:#67679B;" points="438.16,485.054 446.489,444.094 379.786,430.53 371.457,471.49 398.124,476.913 
					393.178,505.322 401.817,506.826 406.721,478.661 				"/>
				<polygon style="fill:#555587;" points="513.457,471.631 504.51,430.801 438.02,445.371 446.966,486.201 473.549,480.376 
					480.513,508.359 489.023,506.241 482.118,478.498 				"/>
				<polygon style="fill:#67679B;" points="64.454,463.583 54.753,421.697 -13.457,437.495 -3.756,479.381 23.514,473.065 
					31.02,501.761 41.235,505.171 32.305,471.029 				"/>
				<polygon style="fill:#555587;" points="155.207,486.259 162.441,450.682 104.505,438.901 97.27,474.479 120.433,479.189 
					116.137,503.864 123.64,505.171 127.9,480.707 				"/>
				<g>
					
						<rect x="34.712" y="382.186" transform="matrix(0.988 0.1543 -0.1543 0.988 65.9585 -9.1866)" style="fill:#8B88BC;" width="114.894" height="76.249"/>
					
						<rect x="71.875" y="449.138" transform="matrix(0.988 0.1543 -0.1543 0.988 74.7391 -7.0051)" style="fill:#8B88BC;" width="21.243" height="57.661"/>
					
						<text transform="matrix(0.988 0.1543 -0.1543 0.988 49.8638 425.4377)" style="fill:#E9EFF4; font-family:'Montserrat-Bold'; font-size:28.8724px;">VOTE</text>
				</g>
				<g>
					
						<rect x="375.275" y="470.404" transform="matrix(0.9696 -0.2447 0.2447 0.9696 -108.1135 108.7548)" style="fill:#8B88BC;" width="16.682" height="38.129"/>
					<path style="fill:#8B88BC;" d="M389.838,401.729c-2.87,0.174-5.818,0.854-7.426,1.815l-11.215-44.438
						c-0.967-3.83-4.528-6.57-8.462-6.205c-4.957,0.46-8.172,5.222-7.002,9.859l7.088,28.084c-1.24-0.252-2.549-0.248-3.851,0.081
						c-3.086,0.779-5.37,3.14-6.224,5.997c-1.74-0.789-3.742-1.024-5.727-0.523c-3.086,0.779-5.37,3.14-6.224,5.997
						c-2.071-0.939-4.516-1.093-6.858-0.155c-4.099,1.642-6.223,6.203-5.142,10.485l0.051,0.2c0.109,8.066,4.55,22.009,7.618,34.166
						c3.888,15.404,16.409,14.702,16.409,14.702l4.082,16.174l42.746-10.788l-3.985-15.789c0,0,2.293-0.601,4.939-1.3
						c4.242-1.12,6.772-5.467,5.65-9.707l-8.759-33.097C396.632,403.833,393.405,401.513,389.838,401.729z"/>
					
						<text transform="matrix(0.9696 -0.2447 0.2447 0.9696 343.2775 443.6166)" style="fill:#FFFFFF; font-family:'Montserrat-Bold'; font-size:19.6131px;">VOTE</text>
					
						<rect x="349.217" y="462.784" transform="matrix(0.9696 -0.2447 0.2447 0.9696 -103.7828 106.9177)" style="fill:#8B88BC;" width="58.348" height="16.682"/>
				</g>
			</g>
			<g>
				<path style="fill:#636BA5;" d="M90.125,149.775c-23.898,16.313-43.986,39.914-78.093,33.402
					c-13.794-2.39-26.301-8.567-38.543-14.532l-1.852,3.348l81.376,45.061l50.376-56.164L90.125,149.775z"/>
				<path style="fill:#7D83C1;" d="M90.125,149.775l-97.798-79.62l-18.838,98.491c12.241,5.964,24.749,12.141,38.543,14.532
					C46.139,189.69,66.227,166.088,90.125,149.775z"/>
				<path style="fill:#773737;" d="M126.751,187.81l-11.562-10.747l-56.29,42.722l20.606,7.848
					C97.845,217.008,115.151,205.008,126.751,187.81z"/>
				<path style="fill:#C66B6B;" d="M258.986,246.576c-5.654-1.207-40.804-13.999-44.983-18.102c-4.179-4.103-43.508,0-43.508,0
					l-43.745-40.663c-11.6,17.197-28.906,29.197-47.245,39.822l72.555,27.633c0,0,0.246,2.896,5.162,7.724
					c4.916,4.827,17.207,6.758,17.207,6.758c0,3.138,3.441,7.482,8.112,10.076c4.67,2.594,11.799-0.663,11.799-0.663
					c5.408,2.172,8.603-1.69,8.603-1.69s5.408,0,8.112,0c2.704,0,5.899-3.862,5.899-3.862s1.966,0,5.899,0
					c3.933,0,5.899-10.861,7.866-15.447c1.966-4.586-2.704-10.137-2.704-10.137s16.469,6.517,22.86,6.517
					C257.266,254.541,264.64,247.783,258.986,246.576z"/>
				<path style="fill:#A2A9DD;" d="M52.726,222.814c0,0,1.608,6.13,8.042,6.13c6.433,0,69.156-48.243,69.156-54.033
					c0-5.791-11.258-7.896-11.258-7.896s-6.969-12.107-18.227-14.739c-11.258-2.632-64.064,60.273-59.507,64.748
					C45.488,221.498,52.726,222.814,52.726,222.814z"/>
				<path style="fill:#773737;" d="M213.883,247.178c-0.151-0.115-0.434,0.037-0.295,0.224c2.464,3.313,5.112,7.992,5.469,12.118
					c0.377,4.351-1.513,8.552-2.239,12.776c-0.023,0.135,0.145,0.213,0.227,0.094C222.561,264.368,222.065,253.396,213.883,247.178z
					"/>
				<path style="fill:#773737;" d="M206.491,264.748c-0.881-4.213-4.596-7.04-6.121-10.97c-0.038-0.098-0.188-0.061-0.162,0.044
					c0.818,3.34,2.84,5.966,4.074,9.137c1.709,4.389-0.473,8.051-1.078,12.363c-0.015,0.106,0.116,0.223,0.207,0.118
					C205.907,272.582,207.274,268.495,206.491,264.748z"/>
				<path style="fill:#773737;" d="M188.494,260.824c-0.011-0.011-0.032,0-0.027,0.015c0.796,2.569,2.191,4.811,3.398,7.203
					c1.434,2.842,1.564,5.777,1.224,8.889c-0.009,0.082,0.118,0.134,0.171,0.069C197.572,271.727,192.421,264.764,188.494,260.824z"
					/>
				<path style="fill:#773737;" d="M187.176,275.552c-2.885-2.924-6.649-5.257-10.833-5.452c-0.083-0.004-0.115,0.116-0.042,0.154
					c3.569,1.881,7.282,3.339,10.715,5.502C187.144,275.837,187.278,275.656,187.176,275.552z"/>
				<path style="fill:#7D83C1;" d="M104.81,158.876c-18.171,10.358-35.125,25.882-45.04,44.192c-0.091,0.168,0.151,0.38,0.283,0.214
					c6.454-8.116,12.946-16.283,20.273-23.666c7.572-7.63,15.765-14.413,24.493-20.727
					C104.826,158.884,104.819,158.871,104.81,158.876z"/>
				<path style="fill:#7D83C1;" d="M84.302,185.475c-5.356,3.397-10.683,8.659-13.627,14.233c-0.122,0.232,0.172,0.466,0.371,0.281
					c2.406-2.234,4.471-4.756,6.653-7.197c2.181-2.441,4.543-4.762,6.646-7.262C84.37,185.502,84.34,185.452,84.302,185.475z"/>
				<path style="fill:#7D83C1;" d="M121.125,173.134c-3.966,3.163-7.393,6.978-10.864,10.643c-3.003,3.171-5.891,7.115-9.995,8.956
					c-0.208,0.093-0.059,0.448,0.157,0.366c4.207-1.589,7.215-4.346,10.248-7.545c3.715-3.918,7.62-7.798,10.743-12.202
					C121.542,173.172,121.275,173.014,121.125,173.134z"/>
				<path style="fill:#636BA5;" d="M68.881,144.49c-0.048-0.392-0.255-0.788-0.686-0.884c-5.555-1.245-11.278-0.905-16.483,1.499
					c-0.121,0.056-0.031,0.224,0.086,0.201c5.098-0.985,10.134-1.134,15.221-0.067c-0.253,3.141-4.402,4.982-6.847,6.395
					c-2.589,1.496-5.227,2.911-7.916,4.226c-5.975,2.924-12.184,5.372-18.555,7.33c-12.398,3.81-25.391,5.641-38.346,6.243
					c-0.556,0.026-0.556,0.82,0,0.848c14.395,0.737,28.697-1.707,42.298-6.318c6.61-2.241,13.042-5.006,19.192-8.274
					c2.95-1.567,6.047-3.166,8.71-5.181C67.547,149.004,69.196,147.082,68.881,144.49z"/>
				<path style="fill:#636BA5;" d="M35.329,124.738C18.455,130.646,1.7,139.789-7.638,155.291c-0.151,0.25,0.221,0.554,0.421,0.319
					c5.319-6.266,11.467-12.283,18.306-16.944c7.7-5.247,16.493-8.708,24.302-13.784C35.462,124.836,35.419,124.707,35.329,124.738z
					"/>
				<path style="fill:#636BA5;" d="M10.88,128.778c-2.721-0.4-5.481,2.373-7.391,3.968c-3.042,2.54-5.466,5.041-7.703,8.253
					c-0.148,0.213,0.16,0.384,0.333,0.252c2.439-1.854,4.703-3.678,7-5.725c1.008-0.898,2.043-1.765,3.068-2.643
					c1.346-1.152,3.045-3.309,4.694-3.878C10.98,128.971,11.009,128.797,10.88,128.778z"/>
			</g>
			<g>
				<path style="fill:#F7B5A6;" d="M323.107,196.115c0,0-8.16-8.64-15.36-8.64c-7.2,0-17.76,11.04-17.76,11.04
					s-50.4,18.24-50.4,21.12c0,2.88,1.08,5.16,3.36,7.44c2.28,2.28,32.16-7.44,32.16-7.44s9.12,20.16,22.08,27.36
					c12.96,7.2,46.08-13.44,46.08-13.44l10.783-2.467c-2.512-13.673-7.833-26.843-12.262-40.203L323.107,196.115z"/>
				<path style="fill:#E29386;" d="M347.107,189.395l-5.319,1.489c4.429,13.361,9.75,26.531,12.262,40.203l17.537-4.013
					L347.107,189.395z"/>
				<path style="fill:#0172BD;" d="M341.664,185.213l23.554,46.656c0.357,0.708,1.153,1.08,1.925,0.9l147.484-34.254l-7.913-92.908
					l-164.248,77.274C341.59,183.294,341.227,184.348,341.664,185.213z"/>
				<path style="fill:#E29386;" d="M292.237,214.285c-5.386,0.968-11.966,1.228-15.79,5.664c-0.106,0.123-0.005,0.312,0.16,0.274
					c5.382-1.235,10.393-4.099,15.669-5.795C292.369,214.399,292.33,214.268,292.237,214.285z"/>
				<path style="fill:#E29386;" d="M297.975,222.43c-2.995,1.378-6.215,2.1-9.255,3.361c-2.12,0.879-5.381,1.931-6.547,4.005
					c-0.216,0.385,0.139,0.74,0.525,0.683c1.292-0.191,2.306-0.994,3.461-1.586c1.337-0.686,2.705-1.29,4.074-1.908
					c2.74-1.237,5.329-2.741,7.805-4.446C298.106,222.492,298.048,222.396,297.975,222.43z"/>
				<path style="fill:#E29386;" d="M304.189,231.668c-3,0.777-5.951,1.856-8.883,2.862c-2.702,0.927-5.602,1.518-7.91,3.243
					c-0.146,0.109-0.098,0.328,0.092,0.342c3.014,0.218,5.917-1.105,8.686-2.196c2.794-1.1,5.595-2.383,8.101-4.044
					C304.381,231.805,304.317,231.635,304.189,231.668z"/>
				<path style="fill:#E29386;" d="M309.96,240.163c-3.208,0.771-6.473,0.941-9.757,1.157c-2.079,0.137-5.067-0.331-6.736,1.093
					c-0.112,0.095-0.063,0.267,0.044,0.337c2.015,1.343,6.142,0.359,8.437,0.081c2.82-0.342,5.57-1.195,8.024-2.639
					C309.987,240.183,309.977,240.159,309.96,240.163z"/>
				<path style="fill:#E29386;" d="M310.185,197.417c-2.736-1.276-5.608-2.808-8.712-2.476c-3.177,0.34-6.507,0.601-8.86,2.912
					c-0.102,0.1,0.003,0.269,0.137,0.235c2.514-0.644,5.209-0.926,7.765-1.378c1.809-0.32,3.431-0.525,5.263-0.155
					c1.459,0.295,2.901,0.68,4.362,0.97C310.2,197.536,310.249,197.447,310.185,197.417z"/>
				<path style="fill:#066396;" d="M367.337,196.417c-3.182-4.573-8.127-13.276-14.296-13.626c-0.206-0.012-0.238,0.298-0.048,0.353
					c3.556,1.034,6.581,6.774,8.667,9.709c2.135,3.004,4.181,6.087,6.1,9.234c3.682,6.04,6.88,12.38,10.42,18.501
					c0.158,0.273,0.57,0.088,0.5-0.211C376.624,211.603,372.474,203.797,367.337,196.417z"/>
				<path style="fill:#066396;" d="M490.26,154.934c-2.203-7.959-5.378-15.731-8.835-23.223c-0.069-0.149-0.343-0.081-0.32,0.087
					c1.425,10.612,5.497,20.635,7.299,31.172c0.755,4.418,2.813,22.531-7.433,16.07c-5-3.154-9.509-8.181-13.927-12.11
					c-0.32-0.284-0.731,0.141-0.464,0.464c2.891,3.499,5.666,7.097,8.577,10.577c1.896,2.266,3.969,4.86,6.919,5.784
					c5.119,1.602,9.307-2.664,10.445-7.293C494.166,169.767,492.048,161.394,490.26,154.934z"/>
				<path style="fill:#066396;" d="M476.91,198.364c-19.588,2.43-35.124-11.409-47.995-24.096c-0.128-0.126-0.373,0.045-0.258,0.199
					c11.291,15.039,27.823,32.279,48.342,24.558C477.323,198.902,477.316,198.313,476.91,198.364z"/>
				<path style="fill:#066396;" d="M445.425,203.214c-4.116-2.388-8.473-3.605-12.103-6.878c-0.095-0.086-0.257,0.024-0.184,0.142
					c2.504,4.077,7.069,8.111,12.197,7.421C445.669,203.855,445.679,203.362,445.425,203.214z"/>
			</g>
			<g>
				<path style="fill:#F4AFA8;" d="M438.728,372.211c-19.209-25.066-52.867-67.616-67.649-77.941l-36.297-11.633
					c0,0-39.344,12.37-49.784,14.224c0,0,7.82,9.381,32.994-0.473c0,0-7.336,12.841-6.872,15.452
					c0.463,2.61,9.858,7.865,13.81,10.626c3.952,2.76,23.303,4.517,25.91,0.785c0,0,9.571,1.915,16.212-1.84
					c0,0,25.17,67.367,39.817,89.199C419.155,399.671,428.459,385.483,438.728,372.211z"/>
				<path style="fill:#E29386;" d="M438.728,372.211c-10.269,13.271-19.573,27.459-31.861,38.397
					c1.931,2.879,3.682,4.976,5.165,6.012c12.733,8.894,30.788,8.765,30.788,8.765l10.034-34.475
					C452.853,390.91,447.191,383.255,438.728,372.211z"/>
				<path style="fill:#E29386;" d="M326.45,296.761c-3.281,3.73-6.588,7.129-8.589,11.769c-1.459,3.384-0.307,5.214,1.955,7.964
					c0.143,0.174,0.368-0.022,0.34-0.198c-0.284-1.744-1.057-3.483-0.601-5.259c0.405-1.577,1.618-3.253,2.318-4.732
					c1.511-3.189,2.794-6.458,4.761-9.403C326.708,296.794,326.539,296.661,326.45,296.761z"/>
				<path style="fill:#E29386;" d="M332.643,300.876c-4.673,5.777-11.277,13.117-7.007,20.657c0.087,0.154,0.324,0.117,0.371-0.049
					c0.46-1.602,0.351-1.181,0.13-2.879c-0.379-2.908,0.122-4.889,1.446-7.419c1.77-3.379,3.569-6.735,5.269-10.15
					C332.914,300.911,332.743,300.751,332.643,300.876z"/>
				<path style="fill:#E29386;" d="M340.215,306.492c-3.126,2.978-6.41,7.003-6.867,11.498c-0.272,2.679,1.149,6.145,4.347,5.122
					c0.145-0.046,0.18-0.248,0.043-0.328c-5.908-3.449-0.066-12.303,2.649-16.159C340.46,306.521,340.302,306.409,340.215,306.492z"
					/>
				<path style="fill:#E29386;" d="M345.297,318.685c-1.453-0.638-3.547-1.192-4.823,0.081c-0.029,0.029-0.021,0.077,0.013,0.098
					c1.207,0.774,2.725,0.801,4.007,1.425c1.373,0.668,2.304,1.79,3.702,2.401c0.18,0.079,0.416-0.01,0.411-0.236
					C348.569,320.505,346.966,319.418,345.297,318.685z"/>
				<g>
					<path style="fill:#EC4D4A;" d="M440.426,374.431c0,0-22.871,58-22.871,76c0,0,13.68,8.28,39.6,15.48
						c25.92,7.2,59.76,7.2,59.76,7.2c0-3.6-2.88-95.76-2.88-95.76S457.537,374.431,440.426,374.431z"/>
					<path style="fill:#BF3A3A;" d="M444.261,376.525c-0.28-0.314-0.86,0.015-0.718,0.418c4.192,11.906,4.619,23.215,3.991,35.728
						c-0.014,0.282,0.394,0.316,0.476,0.064C451.76,401.139,453.016,386.317,444.261,376.525z"/>
					<path style="fill:#BF3A3A;" d="M492.135,449.276c-21.581-17.618-18.668-50.628-39.247-68.58
						c-0.183-0.159-0.507,0.048-0.356,0.275c8.194,12.247,12.064,26.163,17.289,39.773c4.568,11.899,10.449,22.656,21.746,29.269
						C492.011,450.272,492.558,449.621,492.135,449.276z"/>
				</g>
			</g>
			<g>
				<path style="fill:#F4AFA8;" d="M90.02,297.354l33.947-17.333c0,0,40.824,5.865,51.426,6.011c0,0-6.205,10.519-32.639,4.853
					c0,0,9.31,11.491,9.274,14.141c-0.037,2.651-8.461,9.352-11.916,12.713c-3.455,3.361-22.27,8.215-25.444,4.952
					c0,0-9.137,3.433-16.297,0.797c0,0-47.418,67.22-58.551,78.05c-11.133,10.83-28.972,13.614-28.972,13.614l-15.46-32.406
					C-4.612,382.746,71.401,315.466,90.02,297.354z"/>
				<path style="fill:#FFC809;" d="M69.58,312.258c0,0,21.12,14.291,21.12,22.025c0,7.735-5.31,13.303-5.31,13.303l-27.226-25.729
					C58.165,321.858,65.113,312.258,69.58,312.258z"/>
				<path style="fill:#FFC809;" d="M49.916,320.125c4.327-2.953,10.076-2.682,14.157,0.602c9.38,7.548,26.627,22.331,26.627,28.971
					c0,9.12-5.176,29.76-16.268,36.96c-11.092,7.2-3.684,9.948-16.268,28.494C45.58,433.698,1.36,475.385-13.52,464.825
					s-20.58-75.287-20.58-80.087s36.24-15.12,42.24-21.12C13.187,358.572,34.137,330.894,49.916,320.125z"/>
				<path style="fill:#E29386;" d="M145.263,302.447c-3.392-4.4-8.154-8.06-12.332-11.671c-0.062-0.053-0.139,0.026-0.088,0.088
					c2.377,2.94,4.767,5.821,7.316,8.613c0.986,1.08,2.032,2.135,2.98,3.251c2.394,2.818,2.476,5.224,1.929,8.792
					c-0.012,0.075,0.084,0.127,0.128,0.054C147.164,308.33,147.683,305.586,145.263,302.447z"/>
				<path style="fill:#E29386;" d="M138.805,307.216c-2.763-4.045-7.538-7.625-11.733-10.06c-0.117-0.068-0.233,0.088-0.142,0.184
					c2.564,2.725,5.333,5.245,7.947,7.921c3.697,3.784,3.952,6.873,3.683,11.774c-0.01,0.173,0.259,0.252,0.335,0.091
					C140.419,313.883,140.915,310.303,138.805,307.216z"/>
				<path style="fill:#E29386;" d="M133.51,313.056c-3.29-2.59-7.754-5.528-11.766-6.681c-0.079-0.023-0.125,0.074-0.076,0.131
					c1.865,2.154,4.491,3.695,6.858,5.245c3.192,2.091,6.644,3.612,5.422,8.078c-0.042,0.154,0.149,0.257,0.261,0.152
					C136.701,317.645,136.042,315.05,133.51,313.056z"/>
				<path style="fill:#E29386;" d="M128.314,316.658c-4.516-3.086-10.587,1.244-11.322,6.058c-0.017,0.113,0.075,0.266,0.211,0.212
					c1.793-0.722,2.2-2.655,3.509-3.955c2.058-2.042,4.822-2.549,7.586-2.257C128.331,316.72,128.336,316.674,128.314,316.658z"/>
				<path style="fill:#FF8802;" d="M86.276,336.889c0.599-1.278,1.184-2.555,1.613-3.902c0.005-0.014-0.016-0.028-0.026-0.015
					c-0.867,1.103-1.594,2.291-2.311,3.494c-0.358,0.601-0.908,1.328-1.244,2.07c-0.994-1.509-2.144-2.966-3.348-4.346
					c0.044-0.079,0.088-0.155,0.131-0.22c0.473-0.715,1.035-1.355,1.662-1.937c0.102-0.095-0.034-0.28-0.152-0.196
					c-0.695,0.495-1.337,1.053-1.902,1.694c-0.048,0.055-0.103,0.115-0.161,0.18c-0.47-0.527-0.945-1.045-1.422-1.545
					c0.589-0.677,1.044-1.617,1.428-2.232c0.995-1.591,1.766-3.317,2.462-5.056c0.07-0.175-0.209-0.283-0.3-0.126
					c-0.889,1.534-1.883,2.981-2.925,4.414c-0.415,0.57-1.147,1.246-1.671,1.964c-0.502-0.506-0.999-0.996-1.486-1.466
					c-1.255-1.213-2.565-2.396-3.93-3.518c0.767-1.892,2.324-3.665,3.536-5.203c0.103-0.131-0.063-0.312-0.188-0.188
					c-0.992,0.988-2.02,1.975-2.864,3.097c-0.41,0.546-0.781,1.132-1.1,1.736c-0.006,0.011-0.015,0.026-0.021,0.038
					c-1.549-1.232-3.169-2.374-4.87-3.366c0.261-0.869,0.784-1.768,1.191-2.501c0.544-0.982,1.094-1.947,1.806-2.819
					c0.112-0.138-0.067-0.329-0.199-0.199c-1.317,1.299-3.04,3.094-3.673,5.016c-1.198-0.65-2.434-1.226-3.716-1.699
					c-0.067-0.025-0.117,0.071-0.069,0.117c4.027,3.851,8.592,7.1,12.622,10.964c4.015,3.85,7.312,8.586,11.447,12.237
					c0.064,0.057,0.191,0.004,0.157-0.091c-0.457-1.273-1.087-2.529-1.827-3.757C85.545,338.8,85.913,337.665,86.276,336.889z"/>
				<path style="fill:#FF8802;" d="M79.847,347.569c-2.448-6.067-6.835-9.959-12.577-12.888c-0.134-0.068-0.246,0.121-0.118,0.202
					c11.357,7.218,13.619,24.126,12.546,36.351c-0.02,0.228,0.349,0.276,0.399,0.054C81.942,363.166,83.06,355.533,79.847,347.569z"
					/>
				<path style="fill:#FF8802;" d="M50.172,360.484c-0.038-0.055-0.139-0.023-0.114,0.048c6.293,18.418,5.281,36.964-2.31,54.869
					c-0.176,0.415,0.35,0.974,0.699,0.54C60.842,400.545,61.447,376.789,50.172,360.484z"/>
				<path style="fill:#FF8802;" d="M41.867,391.339c-0.017-0.092-0.147-0.062-0.153,0.021c-0.479,6.168-1.663,12.623-3.012,18.659
					c-0.048,0.217,0.256,0.366,0.371,0.156C42.454,404,43.151,398.221,41.867,391.339z"/>
			</g>
		</g>
	</g>
</g>
</svg>
