<?xml version="1.0" encoding="utf-8"?>
<!-- Generator: Adobe Illustrator 27.5.0, SVG Export Plug-In . SVG Version: 6.00 Build 0)  -->
<svg version="1.1" xmlns="http://www.w3.org/2000/svg" xmlns:xlink="http://www.w3.org/1999/xlink" x="0px" y="0px"
	 viewBox="0 0 500 500" style="enable-background:new 0 0 500 500;" xml:space="preserve">
<g id="BACKGROUND">
	<rect style="fill:#FFFFFF;" width="500" height="500"/>
</g>
<g id="OBJECTS">
	<g>
		<ellipse style="fill:#B2ABDF;" cx="250" cy="449.388" rx="241.319" ry="10.656"/>
		<path style="fill:#8F88B3;" d="M310.299,101.982c0.852-1.714,1.152-4.484,1.323-5.522c0.226-1.375,0.242-6.703,0.21-8.754
			c-0.025-1.656-2.996-3.593-4.085-3.622c-0.023-0.001-0.048,0.011-0.072,0.022V66.74h-95.107v17.355
			c-0.011-0.002-0.024-0.011-0.035-0.01c-1.09,0.029-4.06,1.966-4.085,3.622c-0.031,2.05-0.016,7.379,0.21,8.754
			c0.108,0.658,0.27,2.015,0.59,3.357l0,0c0,0-7.773,59.333-4.551,63.907c0.982,1.393,3.069,4.497,5.597,8.293l-1.346,0.855
			l24.905,38.167c-0.81,15.641-1.359,37.123-1.596,47.512h-0.131v18.619h55.651v-18.619h-0.078
			c-0.148-10.84-0.505-33.749-1.061-49.385l23.683-36.294l-1.346-0.855c2.528-3.796,4.615-6.9,5.597-8.293
			C317.426,159.674,311.657,112.68,310.299,101.982z M294.644,162.91c0,0-10.366,11.207-16.762,13.752
			c-1.779,0.707-11.605,3.264-11.605,3.264l0.546-14.894c2.179,1.186,5.452-0.199,4.794-2.966c-0.137-0.577-0.367-0.992-0.655-1.282
			c0.348-3.189,1.574-14.606,1.395-15.382c-0.208-0.903-3.94-1.255-3.94-1.255s3.644-3.231,2.598-3.672
			c-1.045-0.441-4.792,1.792-4.792,1.792s-0.751-3.412-1.296-3.335c-0.544,0.077-0.796,2.95-0.796,2.95s-9.543-4.965-10.444-4.604
			c-0.901,0.361-1.483,3.22-1.483,3.22s-10.253-2.608-10.896-1.739c-0.643,0.869,1.653,6.052,1.653,6.052s-4.743,4.722-4.102,7.588
			c0.686,3.066,3.596,5.944,5.638,7.642c-0.581,0.236-1.059,0.745-1.285,1.698c-0.449,1.888,0.933,3.132,2.548,3.355
			c-0.004,0.111-0.009,0.211-0.012,0.295c-0.112,2.74,1.785,9.528,7.496,11.321l-0.05,3.739l-0.002,0.001l0.002-0.003
			c0,0-10.028-3.078-11.806-3.786c-6.396-2.545-16.762-13.752-16.762-13.752l-0.082,0.052l-6.874-9.195
			c-1.245-3.375-1.525-28.263-1.584-41.956h87.098c-0.059,13.693-0.339,38.58-1.584,41.956l-6.874,9.195L294.644,162.91z"/>
		<path style="fill:#9F98C7;" d="M240.435,129.884c-0.064-0.028-0.195-0.091-0.354-0.169L240.435,129.884
			c0,0-1.23-3.283-6.771-5.507V98.226h-114.62v25.766c-6.426,2.206-7.8,5.892-7.8,5.892l0.355-0.169
			c-0.159,0.078-0.29,0.142-0.355,0.169c-0.825,0.354-0.394,6.084-0.065,7.828c0.329,1.744,3.125,4.332,3.125,4.332
			s12.551,59.4,14.908,61.021c1.664,1.145,17.234,0.673,26.25,0.297c0.004,0.011,0.008,0.022,0.012,0.033l1.07,3.082
			c0.247,0.758,0.498,1.576,0.735,2.414c-1.238,1.374-2.439,2.696-2.95,3.219c-1.244,1.273,1.866,9.999,5.182,14.544l-0.886,21.916
			c0,0-3.029,11.521-4.461,18.56l0,0.001c-0.448,2.2-0.741,3.967-0.735,4.802c0.022,2.991,5.174,130.179,6.276,157.354h-0.088
			l0.294,5.086h1.193l-2.993,5.665c-0.974,1.643-1.741,2.818-1.741,2.818c-4.03-0.287-6.045,3.765-6.045,3.765h14.24
			c1.275-0.844,1.98-3.542,2.41-6.063c0.443,2.898,0.654,6.063,0.654,6.063h1.741c-0.143-3.554-1.61-10.547-1.834-11.599
			c-0.01-0.048-0.019-0.095-0.03-0.143c0,0-0.001-0.005-0.001-0.005l0,0c-0.043-0.168-0.097-0.335-0.159-0.501h1.603l0.263-5.086
			h-0.068c0.86-22.401,4.361-113.169,6.258-156.916c0.436,0.002,0.876,0.001,1.324-0.008c1.897,43.743,5.398,134.521,6.258,156.924
			h-0.068l0.263,5.086h1.66c-0.061,0.166-0.116,0.333-0.159,0.501l0,0c0,0-0.001,0.005-0.001,0.005
			c-0.012,0.048-0.02,0.096-0.031,0.143c-0.225,1.054-1.691,8.045-1.834,11.599h1.741c0,0,0.211-3.165,0.654-6.063
			c0.43,2.521,1.135,5.218,2.41,6.063h14.24c0,0-2.015-4.052-6.045-3.765c0,0-0.767-1.174-1.741-2.817l-2.993-5.666h1.136
			l0.295-5.086h-0.088c1.102-27.174,6.254-154.362,6.276-157.354c0.006-0.762-0.237-2.297-0.62-4.233h0l0-0.002
			c-1.379-6.968-4.576-19.128-4.576-19.128h0l-0.886-21.916c3.317-4.545,6.426-13.271,5.182-14.544
			c-0.252-0.258-0.633-0.685-1.076-1.196c0.355-1.508,0.816-3.064,1.259-4.429c0.008,0.003,0.016,0.009,0.025,0.012l1.014-3.011
			c0.002-0.005,0.003-0.009,0.005-0.014c9.116,0.341,21.941,0.625,23.442-0.408c2.356-1.621,14.908-61.021,14.908-61.021
			s2.796-2.589,3.125-4.332C240.829,135.968,241.261,130.238,240.435,129.884z M119.044,126.194c-0.159,0.063-0.322,0.13-0.49,0.201
			l0.49-0.234V126.194z M170.239,190.105l-4.646-0.002l-0.002,0.011h-1.872h-26.61l-12.317-36.783h36.589
			c-3.957,5.203-6.906,13.638-5.114,35.177c0,0,6.239-1.073,13.972-1.688V190.105z M214.57,190.113h-26.852h-2.008l0-0.001
			l-4.098-0.002l-0.24-3.7c4.402,0.068,8.603,0.476,11.84,1.473c0,0,3.334-24.82-0.9-34.554h34.577L214.57,190.113z"/>
		<path style="fill:#9F98C7;" d="M261.408,189.686c0.941,0.101,1.028,2.609,1.028,2.609s1.673-0.328,1.921,0.43
			c0.248,0.758-0.163,1.645-0.163,1.645s1.794-1.194,2.177-0.322c0.384,0.872-1.865,2.81-1.865,2.81s3.555,3.308,1.758,6.244
			c0.269-0.043,0.585,0.169,0.492,0.521c-0.006,0.021-0.019,0.039-0.025,0.06l21.164,25.923c0.059-0.021,0.123-0.024,0.187-0.019
			c1.045-1.796,12.554-21.571,14.368-24.425c3.989-6.277,17.041-9.988,17.041-9.988l0,0c5.696-2.2,12.18-3.886,12.18-3.886
			l0.566-5.624l0.188-1.873c-1.151-1.598-2.088-3.592-2.832-5.71c-2.845,0.42-5.964-3.092-5.272-6.453
			c0.218-1.062,0.631-1.7,1.104-2.084c-0.368-3.576-0.97-9.982-0.754-11.679c0.305-2.39,2.611-3.688,2.611-3.688
			s-4.539-6.704-3.524-7.847c1.015-1.143,5.75,0.831,5.75,0.831s-4.633-5.819-1.279-5.715c1.958,0.061,7.389,2.848,14.445,5.819
			c8.317,3.502,5.943,6.912,5.943,6.912c1.883-0.686,4.378-0.469,4.813,2.544c0.318,2.202-0.372,10.478-0.639,13.477
			c0.225,0.364,0.416,0.824,0.541,1.43c0.699,3.4-2.501,6.96-5.372,6.442c-0.921,2.474-2.132,4.79-3.721,6.504l0.417,4.906
			l0.154,1.808l38.284-32.825l0,0l6.207-5.789c0.032-0.088,0.057-0.179,0.09-0.267c0.005-0.013,0.014-0.02,0.02-0.032l11.146-38.225
			l1.32-7.665c-0.354-0.649-0.556-1.318-0.647-1.969c-0.145-0.795-0.081-1.616,0.046-2.316c0.001-0.008,0.003-0.015,0.004-0.023
			c0.022-0.123,0.046-0.242,0.071-0.356c0.183-0.852,0.431-1.413,0.431-1.413s-2.827-0.823-2.827-1.78
			c0-0.598,0.826-0.691,1.446-0.677c0.248,0.006,0.463,0.029,0.578,0.043c0.058,0.007,0.091,0.012,0.091,0.012
			s-0.73-0.636-0.807-1.432c-0.039-0.398,0.356-0.698,0.76-0.898c0.404-0.2,0.819-0.301,0.819-0.301c0,0-0.813-2.042-0.241-2.699
			c0.038-0.044,0.082-0.081,0.133-0.112c0.179-0.107,0.741-0.07,1.507,0.071c0.219,0.04,0.454,0.089,0.702,0.146
			c0.092,0.021,0.187,0.044,0.282,0.067l0.009-0.051c-0.281-0.767-0.583-1.648-0.803-2.439l-36.561-6.597l7.481-43.443l37.748,6.811
			l0.917-5.324l2.192,0.396l-0.917,5.324l36.704,6.623l-7.481,43.443l-36.704-6.623l-0.052,0.299
			c1.618,1.826,3.176,3.791,3.176,3.791c0.708,0.465,1.129,0.942,1.028,1.385c-0.187,0.818-0.532,2.16-0.861,3.41
			c-0.422,1.607-0.818,3.063-0.818,3.063s-3.041,47.46-4.317,52.696c-0.474,1.947-5.28,8.717-11.129,16.454l3.51,4.445
			c0,0-22.128,29.43-31.023,38.282c-0.009,0.182-0.013,0.365-0.023,0.548c-0.018,0.349-0.362,0.476-0.604,0.382
			c-0.122,0.672-0.247,1.346-0.383,2.029c-0.586,3.05-1.274,6.217-1.891,9.251c-0.071,0.347-0.142,0.686-0.212,1.024
			c-0.091,0.457-0.182,0.922-0.263,1.371c-0.03,0.134-0.061,0.26-0.081,0.394c-0.223,1.15-0.435,2.262-0.607,3.326
			c-0.01,0.032-0.02,0.063-0.02,0.087c0,0.016,0,0.032-0.01,0.047c-0.091,0.552-0.172,1.087-0.253,1.615
			c0,0.031-0.01,0.063-0.01,0.095c-0.02,0.158-0.051,0.299-0.061,0.449c-0.162,1.143-0.273,2.206-0.324,3.152
			c-0.04,0.638-0.04,1.214-0.02,1.741c0.01,0.205,0.02,0.41,0.03,0.623c0.121,2.498,0.324,5.603,0.566,9.039
			c0.061,0.772,0.111,1.552,0.172,2.356c0.212,2.9,0.455,5.965,0.698,9.039c0.061,0.788,0.121,1.568,0.182,2.356
			c0.243,3.089,0.475,6.154,0.698,9.023c0.061,0.804,0.111,1.592,0.172,2.356c0.253,3.507,0.455,6.619,0.556,9.023
			c0.04,0.891,0.071,1.686,0.081,2.364c0.01,0.26,0.011,0.504,0.01,0.733c-0.001,0.848-0.71,1.621-1.965,2.309l12.849,128.367
			c0.619-0.211,1.224-0.444,1.805-0.705l0.721,9.187c0,0-2.245,1.57-6.382,2.507l0.683,9.996c0,0,20.796,3.737,20.572,5.961
			c-0.224,2.224-29.747,0-29.747,0s0-5.961,1.789-5.961l-2.318-9.451c-1.704-0.148-3.521-0.421-5.476-0.9l-1.514-9.37
			l-20.453-126.212c-0.258-0.006-0.517-0.013-0.776-0.02l-19.457,59.755l9.129,69.31l0,0v0.001l0.263,1.997
			c-0.014,0.011-0.03,0.02-0.045,0.031l0.834,7.754c-0.61,0.343-1.212,0.648-1.806,0.92l1.016,8.053
			c1.789,0,1.789,5.961,1.789,5.961s-29.524,2.224-29.747,0c-0.224-2.224,20.572-5.961,20.572-5.961l-1.845-6.086
			c-4.41,0.122-7.274-1.287-7.274-1.287l-1.911-10.246c0.589,0.065,1.176,0.116,1.759,0.157c-3.473-14.803-15.699-67.91-13.824-74.2
			c1.573-5.278,9.755-41.287,14.195-60.961c-0.632-0.969-0.433-2.006-0.471-2.803c-0.04-0.733-0.061-1.521-0.051-2.364
			c0.01-2.553,0.182-5.579,0.455-8.873c0.051-0.772,0.121-1.56,0.192-2.356c0.253-2.829,0.556-5.816,0.87-8.858
			c0.081-0.78,0.162-1.568,0.243-2.356c0.303-2.963,0.607-5.95,0.87-8.857c0.071-0.788,0.142-1.576,0.202-2.356
			c0.121-1.379,0.223-2.734,0.313-4.058c0.051-0.709,0.091-1.403,0.132-2.088c0.051-0.93,0.091-1.844,0.121-2.727
			c0.02-0.804,0.04-1.592,0.04-2.348c0.01-0.52,0.01-1.032,0.01-1.529c-0.023-1.686-0.075-3.535-0.143-5.474
			c-3.828,9.895-7.492,17.371-7.492,17.371l-14.959-18.11c0,0.003,0,0.005,0,0.008l13.165,16.125c0,0-8.542,11.549-14.481,8.482
			c-4.707-2.43-28.506-52.652-28.506-52.652s-2.985-3.671-4.125-5.198C253.408,195.571,260.468,189.585,261.408,189.686z"/>
		<g>
			<path style="fill:#FF96AA;" d="M192.808,158.596c0.456,0.14,2.742,0.588,2.798,0.601c0,0-2.736-3.944-1.276-4.409
				c0.645-0.206,5.117,5.463,5.747,6.442c0.394,0.613-0.19,3.348-0.19,3.348l-6.48,3.099c0,0-6.555-4.109-7.019-4.516
				c-0.622-0.546-4.159-5.035-3.719-5.444c0.44-0.408,3.545,1.929,3.545,1.929s-4.405-4.293-3.419-5.324
				c0.354-0.37,4.242,2.238,4.242,2.238s-4.293-3.575-3.395-4.484c0.509-0.515,5.122,4.036,5.122,4.036s-3.194-3.757-2.503-4.178
				C186.951,151.514,191.671,158.246,192.808,158.596z"/>
			<polygon style="fill:#FF96AA;" points="193.406,167.676 199.47,178.94 205.877,176.431 199.886,164.577 			"/>
			
				<line style="fill:none;stroke:#0D0000;stroke-width:0.75;stroke-miterlimit:10;" x1="193.406" y1="167.676" x2="196.081" y2="167.973"/>
			<polygon style="fill:#FEF2FE;" points="203.728,169.183 201.258,165.047 192.4,170.054 194.778,173.841 			"/>
			<path style="fill:#302162;" d="M282.52,166.278c0,0-0.757-11.999-0.652-14.148c0.105-2.149,2.916-2.005,2.916-2.005
				s-2.098-2.865,0.912-5.013c3.01-2.149,8.36,2.578,13.42,1.719c5.06-0.859,5.928,3.867,5.928,3.867s1.538-0.43,3.056,0.573
				c1.519,1.003-0.127,15.086-0.127,15.086L282.52,166.278z"/>
			<g>
				<path style="fill:#FF96AA;" d="M337.27,419.803c0,0,2.21,13.475,4.727,16.251c0,0-2.979,6.044-8.087,4.654
					c-5.109-1.39-5.977-3.986-5.977-3.986l-2.272-13.579L337.27,419.803z"/>
				<path style="fill:#251D47;" d="M356.481,439.071c-1.631,0.163-13.574-3.776-14.543-5.497c-0.97-1.72-7.173,2.041-7.41,2.312
					c-0.238,0.27,0.948,3.138,2.133,4.428c0,0-6.464-1.022-8.726-3.593c0,0-3.985,5.315-1.399,9.903c0,0,27.793-0.004,30.378-0.004
					c2.585,0,6.571-3.403,7.109-4.211c0.538-0.808-1.293-3.819-2.263-4.536C360.789,437.157,358.851,438.834,356.481,439.071z"/>
				<path style="fill:none;stroke:#0D0000;stroke-width:0.75;stroke-miterlimit:10;" d="M339.963,440.707
					c0,0-2.303,1.364-4.82,1.204c-2.517-0.16-8.144-3.642-8.144-3.642"/>
				<path style="fill:none;stroke:#0D0000;stroke-width:0.75;stroke-miterlimit:10;" d="M362.714,438.931
					c0,0-4.219,2.387-5.825,3.351c-1.607,0.964-20.228-1.968-20.228-1.968"/>
				<path style="fill:#352967;" d="M347.814,436.609c0,0-5.28,5.743-5.602,5.87c-0.321,0.127-4.231-1.158-4.446-1.265
					c-0.214-0.107,5.496-6.611,5.496-6.611S347.1,436.345,347.814,436.609z"/>
			</g>
			<g>
				<path style="fill:#FF96AA;" d="M276.6,419.803c0,0-0.196,13.475-2.713,16.251c0,0,2.979,6.044,8.087,4.654
					c5.109-1.39,5.977-3.986,5.977-3.986l0.257-13.579L276.6,419.803z"/>
				<path style="fill:#251D47;" d="M259.404,439.071c1.631,0.163,13.574-3.776,14.543-5.497c0.97-1.72,7.173,2.041,7.41,2.312
					c0.238,0.27-0.948,3.138-2.133,4.428c0,0,6.464-1.022,8.726-3.593c0,0,3.985,5.315,1.399,9.903c0,0-27.793-0.004-30.378-0.004
					c-2.585,0-6.571-3.403-7.109-4.211c-0.539-0.808,1.293-3.819,2.263-4.536C255.095,437.157,257.034,438.834,259.404,439.071z"/>
				<path style="fill:none;stroke:#0D0000;stroke-width:0.75;stroke-miterlimit:10;" d="M275.921,440.707
					c0,0,2.303,1.364,4.82,1.204c2.517-0.16,8.144-3.642,8.144-3.642"/>
				<path style="fill:none;stroke:#0D0000;stroke-width:0.75;stroke-miterlimit:10;" d="M253.171,438.931
					c0,0,4.219,2.387,5.825,3.351c1.607,0.964,20.228-1.968,20.228-1.968"/>
				<path style="fill:#352967;" d="M268.07,436.609c0,0,5.281,5.743,5.602,5.87c0.321,0.127,4.232-1.158,4.446-1.265
					c0.214-0.107-5.496-6.611-5.496-6.611S268.785,436.345,268.07,436.609z"/>
			</g>
			<path style="fill:#40337B;" d="M288.105,428.582c3.001-15.689,5.376-116.448,5.376-116.448h3.629l28.827,118.225
				c0,0,8.646-1.352,13.43-4.021c1.54-0.859-18.834-128.567-20.508-147.451l-0.847-12.253l-52.116-0.866v13.31
				c-1.171,3.514,6.691,144.983,7.992,148.497C273.887,427.575,283.984,429.189,288.105,428.582z"/>
			<path style="fill:none;stroke:#0D0000;stroke-width:0.75;stroke-miterlimit:10;" d="M271.694,277.182
				c0,0,2.304,18.549-5.974,20.11"/>
			<path style="fill:none;stroke:#0D0000;stroke-width:0.75;stroke-miterlimit:10;" d="M287.568,273.062
				c0,0,2.962,38.244,8.735,39.072l-2.283-39.017"/>
			<polygon style="fill:#35190D;" points="265.895,273.301 265.895,279.077 318.858,278.886 317.796,273.109 			"/>
			<path style="fill:#302162;" d="M282.205,161.735c-0.023-0.533,25.911-1.715,25.895-0.493c-0.062,4.7-0.264,11.99-1.158,11.534
				c-2.832,8.971-17.143,9.762-22.792,0.456C283.166,171.611,282.479,167.986,282.205,161.735z"/>
			<path style="fill:#FF96AA;" d="M287.985,180.199v13.287c0,0,5.364,6.153,12.977,0v-12.765L287.985,180.199z"/>
			<path style="fill:#070019;" d="M287.985,180.199v6.77c0,0,3.327,3.069,6.488,3.069c3.161,0,6.488-3.729,6.488-3.729v-5.589
				L287.985,180.199z"/>
			<path style="fill:#FF96AA;" d="M304.589,160.046c-1.182-3.546-4.897-3.883-9.692-3.883c-4.796,0-8.511,0.338-9.692,3.883
				c-1.182,3.546,0.439,14.267,1.115,16.969c0.675,2.702,4.864,8.177,8.679,8.177s8.004-5.475,8.679-8.177
				C304.353,174.313,305.771,163.591,304.589,160.046z"/>
			<path style="fill:#EA7E8E;" d="M295.745,184.027c0.036-0.295-1.663-0.214-1.561,0.045
				C294.287,184.332,295.702,184.376,295.745,184.027z"/>
			<path style="fill:#EA7E8E;" d="M302.805,173.4c0.046-0.726-3.65-0.855-3.689-0.04C299.078,174.175,302.734,174.529,302.805,173.4
				z"/>
			<path style="fill:#EA7E8E;" d="M286.763,173.443c-0.03-0.727,3.668-0.777,3.689,0.04
				C290.472,174.299,286.81,174.574,286.763,173.443z"/>
			<path style="fill:#F4F4F4;" d="M292.585,177.807h5.106c0,0-0.581,4.783-2.728,4.783
				C292.585,182.591,292.585,177.807,292.585,177.807z"/>
			<path style="fill:none;stroke:#0D0000;stroke-width:0.5;stroke-miterlimit:10;" d="M294.962,169.458c0,0-1.165,5.189-1.029,5.65
				s2.071,0.128,2.071,0.128"/>
			<g>
				<g>
					<g>
						<g>
							<g>
								<path style="fill:#0D0000;" d="M292.189,169.262c0.002,0.706-0.309,1.279-0.694,1.28c-0.385,0.001-0.698-0.57-0.7-1.276
									c-0.002-0.706,0.309-1.279,0.693-1.28C291.873,167.985,292.187,168.556,292.189,169.262z"/>
							</g>
						</g>
					</g>
				</g>
			</g>
			<g>
				<g>
					<g>
						<g>
							<g>
								<path style="fill:#0D0000;" d="M297.691,169.262c-0.002,0.706,0.309,1.279,0.694,1.28c0.385,0.001,0.698-0.57,0.7-1.276
									c0.002-0.706-0.309-1.279-0.693-1.28C298.006,167.985,297.693,168.556,297.691,169.262z"/>
							</g>
						</g>
					</g>
				</g>
			</g>
			<path style="fill:#FF96AA;" d="M285.392,166.723c0,0-4.49-1.871-4.77,2.058c-0.281,3.928,2.058,5.519,5.612,4.116
				L285.392,166.723z"/>
			<path style="fill:none;stroke:#0D0000;stroke-width:0.5;stroke-miterlimit:10;" d="M281.869,169.626c0,0,0.714-1.103,1.395-0.908
				c0.681,0.195,1.979,1.622,2.433,2.627"/>
			<path style="fill:#FF96AA;" d="M304.075,166.802c0,0,4.49-1.871,4.77,2.058c0.281,3.928-2.058,5.518-5.612,4.115L304.075,166.802
				z"/>
			<path style="fill:none;stroke:#0D0000;stroke-width:0.5;stroke-miterlimit:10;" d="M308.1,169.626c0,0-0.714-1.103-1.395-0.908
				c-0.681,0.195-1.978,1.622-2.433,2.627"/>
			<path style="fill:#F6DEF8;" d="M320.308,242.43c-0.104,14.598,0.938,27.421,0.487,28.072c-1.073,1.54-2.998,2.606-2.998,2.606
				l-50.834,0.193c-1.925,0-3.849-0.94-4.279-2.613c-0.185-0.718,1.414-12.869,1.592-27.185c0.244-19.106-0.217-43.176-0.091-44.027
				c0.215-1.495,22.639-5.812,23.801-5.99c0,0,5.162,6.11,12.977,0c0,0,19.182,5.655,20.129,6.062
				C321.579,199.763,320.448,222.702,320.308,242.43z"/>
			<path style="fill:none;stroke:#0D0000;stroke-width:0.75;stroke-miterlimit:10;" d="M284.46,255.311
				c8.597-6.606,16.153-14.565,22.304-23.493"/>
			<path style="fill:none;stroke:#0D0000;stroke-width:0.75;stroke-miterlimit:10;" d="M292.189,261.42
				c0,0,11.657-13.843,14.77-20.986"/>
			
				<line style="fill:none;stroke:#0D0000;stroke-width:0.75;stroke-miterlimit:10;" x1="262.781" y1="268.719" x2="320.902" y2="269.585"/>
			<path style="fill:#352967;" d="M287.985,193.486l-7.386,91.983c0,0-15.598,2.563-21.184,0c0,0,4.584-84.754,5.108-87.465
				C264.675,197.211,287.985,193.486,287.985,193.486z"/>
			<path style="fill:none;stroke:#0D0000;stroke-width:0.75;stroke-miterlimit:10;" d="M319.017,210.914
				c0,0-0.419,24.077,2.127,37.425"/>
			<path style="fill:#302162;" d="M287.787,165.252c-0.097-0.908,5.889-1.238,5.689,0.126
				C293.274,166.743,287.914,166.438,287.787,165.252z"/>
			<path style="fill:#302162;" d="M302.803,165.252c0.097-0.908-5.89-1.238-5.689,0.126
				C297.315,166.743,302.676,166.438,302.803,165.252z"/>
			
				<line style="fill:none;stroke:#0D0000;stroke-width:0.75;stroke-miterlimit:10;" x1="289.07" y1="312.134" x2="305.044" y2="312.134"/>
			
				<line style="fill:none;stroke:#0D0000;stroke-width:0.75;stroke-miterlimit:10;" x1="293.48" y1="312.134" x2="289.07" y2="314.912"/>
			
				<line style="fill:none;stroke:#0D0000;stroke-width:0.75;stroke-miterlimit:10;" x1="297.11" y1="312.134" x2="302.395" y2="316.987"/>
			<path style="fill:none;stroke:#0D0000;stroke-width:0.75;stroke-miterlimit:10;" d="M312.108,275.965
				c0,0-0.627,23.843,9.132,21.585"/>
			<polygon style="fill:#DB4987;" points="293.922,196.181 290.633,199.775 292.183,201.261 289.279,250.455 293.48,257.696 
				299.084,250.914 295.153,201.69 297.11,199.583 			"/>
			<path style="fill:none;stroke:#0D0000;stroke-width:0.75;stroke-miterlimit:10;" d="M279.755,194.85l-4.943,24.028l4.669,3.724
				l-3.237,4.336c0,0,1.362,21.572,6.625,30.247"/>
			<path style="fill:#352967;" d="M300.96,193.486l2.207,92.442c0,0,15.454,2.576,21.184,0c0,0-2.766-83.682-3.261-86.38
				C320.832,198.136,300.96,193.486,300.96,193.486z"/>
			<polygon style="fill:#251D47;" points="323.23,252.969 323.672,265.768 302.929,275.965 302.591,261.796 			"/>
			<path style="fill:none;stroke:#0D0000;stroke-width:0.75;stroke-miterlimit:10;" d="M308.899,195.635l3.804,23.37l-4.879,3.743
				l2.993,4.357c0,0-2.576,21.679-8.328,30.398"/>
			<path style="fill:#EA7E8E;" d="M291.306,267.232c0,0-2.655-0.861-3.255-0.963c-0.599-0.102-4.154,4.435-4.242,5.156
				s0.663,1.582,3.411-0.468C289.969,268.907,291.306,267.232,291.306,267.232z"/>
			<path style="fill:#FF96AA;" d="M297.304,267.357c0,0-5.948-1.059-6.748-1.145c-0.8-0.086-5.605,4.61-5.424,5.6
				c0.18,0.99,4.089,0.442,5.383-2.178c0,0,3.28,6.345,9.723,1.987L297.304,267.357z"/>
			<path style="fill:#302162;" d="M286.763,154.279c0,0,0.251,3.867,2.66,5.156c2.408,1.289,11.316,1.541,12.462,1.272
				c1.146-0.269,0-2.274,0-2.274s2.589,2.578,4.303,1.289C307.9,158.433,303.011,148.263,286.763,154.279z"/>
			<path style="fill:#352967;" d="M266.117,197.358c-9.077,1.558-40.734,9.421-40.734,9.421l-21.441-39.319l-11.041,5.894
				c0,0,19.922,47.824,21.641,49.829c1.719,2.005,52.953-1.439,52.953-1.439S273.01,196.175,266.117,197.358z"/>
			<polygon style="fill:#FEF2FE;" points="299.023,262.221 294.924,264.752 299.739,272.492 303.491,270.058 			"/>
			<path style="fill:#352967;" d="M321.091,199.548c4.654,1.136,17.395,43.788,16.359,45.787
				c-2.039,3.934-35.278,26.284-35.278,26.284l-4.868-8.926l25.367-19.167C322.671,243.526,312.093,197.351,321.091,199.548z"/>
			
				<line style="fill:none;stroke:#0D0000;stroke-width:0.75;stroke-miterlimit:10;" x1="297.304" y1="262.693" x2="328.72" y2="238.12"/>
			<path style="fill:none;stroke:#0D0000;stroke-width:0.75;stroke-miterlimit:10;" d="M318.954,205.688
				c0,0-1.962,3.139-0.074,12.032c1.889,8.892,5.214,24.019,5.214,24.019"/>
			<path style="fill:#251D47;" d="M262.956,222.036l5.374-0.042c0,0-0.251,4.944-5.662,6.196L262.956,222.036z"/>
			
				<line style="fill:none;stroke:#0D0000;stroke-width:0.75;stroke-miterlimit:10;" x1="225.384" y1="206.779" x2="223.423" y2="210.865"/>
			<path style="fill:#C9437C;" d="M295.153,201.69c0,0-0.973,9.13-0.973,16.042c0,1.997-0.7,39.963-0.7,39.963l5.604-6.782
				L295.153,201.69z"/>
			<path style="fill:none;stroke:#0D0000;stroke-width:0.75;stroke-miterlimit:10;" d="M292.189,261.42"/>
			<path style="fill:#FEF2FE;" d="M287.985,186.969c0,0-1.643,0.596-2.52,0.97s-2.24,4.021-2.578,4.482
				c-0.339,0.46,4.364,6.583,6.398,8.839l4.607-5.079l-5.908-2.695V186.969z"/>
			<path style="fill:#FEF2FE;" d="M300.961,186.31c0,0,1.539,1.086,2.272,1.576c0.793,0.529,2.036,4.075,2.375,4.535
				c0.339,0.46-4.244,7.121-6.524,9.269l-5.163-5.509l7.04-2.695V186.31z"/>
			<path style="fill:none;stroke:#0D0000;stroke-width:0.75;stroke-miterlimit:10;" d="M187.724,161.727
				c0,0,1.572-2.431,2.865-3.151"/>
			<path style="fill:none;stroke:#0D0000;stroke-width:0.75;stroke-miterlimit:10;" d="M324.63,425.001
				c0,0,11.919-3.23,14.281-5.198"/>
			<path style="fill:none;stroke:#0D0000;stroke-width:0.75;stroke-miterlimit:10;" d="M273.293,422.402
				c0,0,12.622,1.178,15.593,0.132"/>
			<polygon style="fill:#FDA520;" points="285.915,273.301 285.412,280.327 298.518,280.327 298.518,273.182 			"/>
			
				<line style="fill:none;stroke:#0D0000;stroke-width:0.75;stroke-miterlimit:10;" x1="194.744" y1="177.762" x2="205.877" y2="171.759"/>
			
				<line style="fill:none;stroke:#0D0000;stroke-width:0.75;stroke-miterlimit:10;" x1="300.238" y1="260.398" x2="305.941" y2="269.061"/>
		</g>
		<g>
			<g>
				<rect x="183.933" y="269.999" style="fill:#F4B6AB;" width="92.198" height="10.779"/>
				<polygon style="fill:#E8A499;" points="321.546,288.991 276.13,280.778 276.13,269.999 321.546,278.212 				"/>
				<rect x="194.465" y="280.778" style="fill:#FDD5CD;" width="81.665" height="165.847"/>
				<polygon style="fill:#F5B6AD;" points="276.13,280.778 311.014,287.086 311.014,446.625 276.13,446.625 				"/>
			</g>
			<polygon style="fill:#070019;" points="210.682,269.999 210.682,263.433 254.793,263.433 274.787,267.044 274.787,269.999 			"/>
			<g>
				<path style="fill:#070019;" d="M238.502,242.362c-1.393-2.403-4.441-2.51-5.478-1.91c-2.856,1.655-3.23,3.644-3.23,3.644
					l1.437,2.479l1.437,2.48c0,0,2.078,0.567,4.768-0.991C238.472,247.464,239.895,244.765,238.502,242.362z"/>
				<path style="fill:none;stroke:#070019;stroke-width:2;stroke-miterlimit:10;" d="M218.384,263.394l0.054-7.913
					c0.005-0.642,0.339-1.237,0.886-1.574l10.592-6.519"/>
				<path style="fill:#070019;" d="M227.835,245.776c0,0-7.019,4.068-5.649,6.432c1.352,2.333,8.329-1.71,8.329-1.71
					L227.835,245.776z"/>
				<polygon style="fill:#FEF2FE;" points="229.058,240.496 232.242,245.99 228.319,248.263 225.261,242.986 				"/>
				<polygon style="fill:#F6DEF8;" points="235.426,251.484 232.242,245.99 228.319,248.263 231.378,253.541 				"/>
			</g>
			<g>
				<path style="fill:#070019;" d="M271.875,242.362c-1.393-2.403-4.441-2.51-5.478-1.91c-2.856,1.655-3.23,3.644-3.23,3.644
					l1.437,2.479l1.437,2.48c0,0,2.078,0.567,4.768-0.991C271.845,247.464,273.268,244.765,271.875,242.362z"/>
				<path style="fill:none;stroke:#070019;stroke-width:2;stroke-miterlimit:10;" d="M251.757,263.394l0.055-7.913
					c0.004-0.642,0.339-1.237,0.886-1.574l10.592-6.519"/>
				<path style="fill:#070019;" d="M261.208,245.776c0,0-7.019,4.068-5.649,6.432c1.352,2.333,8.329-1.71,8.329-1.71
					L261.208,245.776z"/>
				<polygon style="fill:#FEF2FE;" points="262.432,240.496 265.615,245.99 261.692,248.263 258.634,242.986 				"/>
				<polygon style="fill:#F6DEF8;" points="268.799,251.484 265.615,245.99 261.692,248.263 264.751,253.541 				"/>
			</g>
		</g>
		<g>
			<g>
				<path style="fill:#FF96AA;" d="M65.069,411.18l-5.27,20.177c0,0,3.775,5.146,10.233,2.59l7.558-19.428L65.069,411.18z"/>
				<path style="fill:#FEF2FE;" d="M39.226,437.619c0,0-3.592,0.26-4.725,0.156c-1.133-0.104-1.475,2.379-1.503,3.651
					c-0.028,1.272,2.552,4.576,8.288,5.092c5.736,0.516,19.525-0.999,21.218-1.055c1.693-0.056,6.226,0.39,7.849,0.336
					c1.622-0.054,4.431-0.53,4.92-0.688c0.489-0.157,0.791-3.839-0.008-4.519L39.226,437.619z"/>
				<path style="fill:#352967;" d="M60.537,428.723c0,0,0.611,1.392,0.524,3.019c0,0,2.691,2.382,5.087,2.232
					c2.396-0.15,3.487-1.316,4.023-2.181c0.536-0.865,0.718-1.789,1.691-2.245c0,0,4.505,5.994,3.402,11.044
					c0,0-31.316,1.036-33.784,1.118c0,0-2.118-2.119-2.254-4.091c0,0,9.26-2.62,12.09-3.789
					C55.216,432.218,60.537,428.723,60.537,428.723z"/>
				<path style="fill:#352967;" d="M75.702,441.777c0,0-8.809,0.688-11.42,0.642c-2.611-0.046-7.648,0.563-9.873,0.592l0.026,0.79
					c2.224-0.029,7.262-0.638,9.873-0.592s11.42-0.642,11.42-0.642L75.702,441.777z"/>
				<path style="fill:none;stroke:#0D0000;stroke-width:0.75;stroke-miterlimit:10;" d="M61.061,431.742c0,0-7.238,4.655-9.298,5.21
					c-2.06,0.555-12.109,2.178-12.109,2.178"/>
				<path style="fill:none;stroke:#0D0000;stroke-width:0.75;stroke-miterlimit:10;" d="M63.88,440.969c0,0,0.528-2.092,1.304-2.684
					c0.257-0.196,4.244-0.052,4.964-0.346c0.72-0.293,3.924-4.551,3.924-4.551"/>
				<path style="fill:none;stroke:#0D0000;stroke-width:0.75;stroke-miterlimit:10;" d="M59.731,432.582
					c0,0,4.039,3.044,5.697,3.055c1.659,0.012,4.522-0.97,5.166-1.908s1.78-3.434,1.78-3.434"/>
				
					<line style="fill:none;stroke:#0D0000;stroke-width:0.75;stroke-miterlimit:10;" x1="55.241" y1="430.862" x2="56.84" y2="432.678"/>
				
					<line style="fill:none;stroke:#0D0000;stroke-width:0.75;stroke-miterlimit:10;" x1="53.736" y1="431.846" x2="55.334" y2="433.662"/>
				
					<line style="fill:none;stroke:#0D0000;stroke-width:0.75;stroke-miterlimit:10;" x1="52.07" y1="432.836" x2="53.669" y2="434.652"/>
				<path style="fill:none;stroke:#0D0000;stroke-width:0.75;stroke-miterlimit:10;" d="M33.959,437.953
					c0,0,1.251,2.598,2.135,3.232s5.386,0.525,5.386,0.525"/>
			</g>
			<g>
				<path style="fill:#FF96AA;" d="M112.396,428.723l0.806-9.934l-11.113-0.399l-0.772,17.046
					C101.316,435.436,115.457,438.164,112.396,428.723z"/>
				<g>
					<path style="fill:#FEF2FE;" d="M133.707,437.619c0,0,3.592,0.26,4.725,0.156c1.133-0.104,1.475,2.379,1.503,3.651
						c0.028,1.272-2.552,4.576-8.288,5.092c-5.736,0.516-19.525-0.999-21.218-1.055c-1.693-0.056-6.226,0.39-7.849,0.336
						c-1.622-0.054-4.431-0.53-4.92-0.688c-0.489-0.157-0.791-3.839,0.008-4.519L133.707,437.619z"/>
					<path style="fill:#352967;" d="M112.396,428.723c0,0-0.611,1.392-0.524,3.019c0,0-2.691,2.382-5.087,2.232
						c-2.396-0.15-3.487-1.316-4.023-2.181c-0.536-0.865-0.717-1.789-1.691-2.245c0,0-4.505,5.994-3.402,11.044
						c0,0,31.316,1.036,33.784,1.118c0,0,2.118-2.119,2.254-4.091c0,0-9.26-2.62-12.09-3.789
						C117.717,432.218,112.396,428.723,112.396,428.723z"/>
					<path style="fill:#352967;" d="M97.231,441.777c0,0,8.809,0.688,11.42,0.642c2.611-0.046,7.648,0.563,9.872,0.592l-0.026,0.79
						c-2.224-0.029-7.262-0.638-9.872-0.592c-2.611,0.046-11.42-0.642-11.42-0.642L97.231,441.777z"/>
					<path style="fill:none;stroke:#0D0000;stroke-width:0.75;stroke-miterlimit:10;" d="M111.872,431.742
						c0,0,7.238,4.655,9.298,5.21c2.06,0.555,12.109,2.178,12.109,2.178"/>
					<path style="fill:none;stroke:#0D0000;stroke-width:0.75;stroke-miterlimit:10;" d="M109.052,440.969
						c0,0-0.528-2.092-1.304-2.684c-0.257-0.196-4.244-0.052-4.964-0.346c-0.72-0.293-3.924-4.551-3.924-4.551"/>
					<path style="fill:none;stroke:#0D0000;stroke-width:0.75;stroke-miterlimit:10;" d="M113.201,432.582
						c0,0-4.038,3.044-5.697,3.055c-1.659,0.012-4.522-0.97-5.166-1.908c-0.644-0.938-1.781-3.434-1.781-3.434"/>
					
						<line style="fill:none;stroke:#0D0000;stroke-width:0.75;stroke-miterlimit:10;" x1="117.691" y1="430.862" x2="116.093" y2="432.678"/>
					
						<line style="fill:none;stroke:#0D0000;stroke-width:0.75;stroke-miterlimit:10;" x1="119.197" y1="431.846" x2="117.599" y2="433.662"/>
					
						<line style="fill:none;stroke:#0D0000;stroke-width:0.75;stroke-miterlimit:10;" x1="120.862" y1="432.836" x2="119.264" y2="434.652"/>
					<path style="fill:none;stroke:#0D0000;stroke-width:0.75;stroke-miterlimit:10;" d="M138.974,437.953
						c0,0-1.251,2.598-2.135,3.232c-0.883,0.634-5.386,0.525-5.386,0.525"/>
				</g>
			</g>
			<path style="fill:#EA7E8E;" d="M61.86,95.973c0,0,8.259-4.952,9.622-4.645c1.363,0.307-4.137,6.206-4.137,6.206L61.86,95.973z"/>
			<path style="fill:#EA7E8E;" d="M165.631,92.448c0,0-7.642-5.86-9.031-5.71c-1.389,0.15,3.403,6.636,3.403,6.636L165.631,92.448z"
				/>
			<rect x="64.949" y="79.048" style="fill:#B2ABDF;" width="95.796" height="42.499"/>
			<path style="fill:#FF96AA;" d="M152.315,99.355c-0.249-1.041,4.216-1.332,4.216-1.332s-3.001-0.405-3.295-1.25
				c-0.294-0.845,3.468-1.818,3.468-1.818s-3.659-2.189-2.876-2.937c0.783-0.748,13.298-0.488,13.309,1.662
				c0.012,2.149-0.18,7.49-0.18,7.49l-4.714,7.581c-5.518-2.086-4.292-8.306-4.292-8.306S152.565,100.396,152.315,99.355z"/>
			<path style="fill:#FF96AA;" d="M160.061,160.324l0.577-53.119c-3.645-1.335-2.687-6.761-2.687-6.761s-5.386-0.048-5.635-1.089
				c-0.249-1.041,4.216-1.332,4.216-1.332s-3.001-0.405-3.295-1.25c-0.294-0.845,3.468-1.818,3.468-1.818s-3.659-2.189-2.876-2.937
				c0.783-0.748,13.298-0.488,13.309,1.662c0.012,2.149-0.18,7.49-0.18,7.49s8.937,58.157,8.883,64.194
				c-0.054,6.037-27.244,25.297-27.244,25.297l-11.74-15.25L160.061,160.324z"/>
			
				<line style="fill:none;stroke:#0D0000;stroke-width:0.75;stroke-miterlimit:10;" x1="160.061" y1="160.324" x2="159.648" y2="163.926"/>
			<polygon style="fill:#352967;" points="129.457,272.885 119.09,428.392 99.811,426.672 102.137,272.885 			"/>
			<path style="fill:#251D47;" d="M129.457,272.885l-1.414,21.206c0,0-12.427,17.063-26.567,22.48l0.661-43.686H129.457z"/>
			<path style="fill:none;stroke:#0D0000;stroke-width:0.75;stroke-miterlimit:10;" d="M106.879,296.942
				c0,0-1.46,100.575-4.117,129.73"/>
			<path style="fill:#FEF2FE;" d="M103.055,188.47c0,0-12.533-0.242-14.2,0.854c-1.667,1.096-10.23,75.13-10.23,77.679
				c0,2.549,4.167,5.883,4.167,5.883h46.666c0,0,5.049-1.932,5.022-6.688c-0.014-2.486-4.074-75.511-5.022-76.874
				s-13.657-1.279-13.657-1.279L103.055,188.47z"/>
			<path style="fill:#302162;" d="M119.092,174.89c1.457-0.041,2.822-1.176,3.732-2.677c0.91-1.502,1.421-3.339,1.788-5.178
				c1.02-5.108,1.035-10.424,1.044-15.673c0.002-1.097-0.012-2.266-0.48-3.166c-0.17-0.327-0.407-0.612-0.701-0.716
				c-0.796-0.281-1.479,0.794-1.912,1.725c-0.018-1.239-0.326-3.113-0.743-4.217c-0.46-1.22-1.277-2.372-2.332-2.422
				c-0.214-0.01-0.437,0.03-0.62,0.179c-0.213,0.173-0.346,0.467-0.471,0.749c-0.463,1.05-0.927,2.1-1.39,3.15
				c-0.131-1.086-0.671-1.777-1.143-2.682c-0.485-0.931-1.175-1.979-2.038-1.76c-0.765,0.194-1.169,1.278-1.453,2.224
				c-0.367,1.222-0.739,2.48-0.742,3.782c-1.983-0.025-3.948-0.236-5.931-0.261c-0.884-0.011-1.791-0.018-2.627,0.38
				c-1.452,0.692-2.494,2.672-2.454,4.663c-0.523-0.373-1.079-0.545-1.472,0.059c-0.393,0.604-0.549,1.399-0.675,2.167
				c-0.542,3.295-0.758,6.671-0.643,10.018c0.065,1.877,0.243,3.787,0.879,5.459c1.5,3.947,5.152,5.634,8.55,6.064
				C111.407,177.282,114.913,175.009,119.092,174.89z"/>
			<path style="fill:#EA7E8E;" d="M119.587,165.48c0,0,4.932-3.841,6.285,0.466c1.152,3.665-3.558,5.721-6.122,3.44L119.587,165.48z
				"/>
			<path style="fill:#FF96AA;" d="M114.79,168.117l1.011,19.928c0,0-2.587,3.995-6.424,4.199c-2.028,0.108-5.485-0.776-6.322-3.774
				l-1.395-19.828L114.79,168.117z"/>
			<path style="fill:#0D0000;" d="M114.79,168.117l-11.006,0.44c0,0-0.183,20.997,12.017,19.488L114.79,168.117z"/>
			<path style="fill:#FF96AA;" d="M102.535,161.064c0.328-7.84,10.443-6.875,10.443-6.875s10.16-0.116,9.832,7.724
				c-0.102,2.437-0.34,7.562-0.374,8.921c-0.083,3.366-3.077,12.491-10.511,12.18c-7.434-0.311-9.287-7.899-9.764-13.029
				C102.036,168.631,102.433,163.501,102.535,161.064z"/>
			<path style="fill:#EA7E8E;" d="M116.557,172.351c-0.019,0.457,1.099,0.874,2.499,0.933c1.399,0.059,2.549-0.264,2.568-0.721
				c0.019-0.457-1.1-0.874-2.499-0.933C117.726,171.572,116.576,171.895,116.557,172.351z"/>
			<path style="fill:#EA7E8E;" d="M104.566,171.849c-0.019,0.457,1.099,0.874,2.499,0.933c1.399,0.059,2.549-0.264,2.568-0.721
				c0.019-0.457-1.1-0.874-2.499-0.933C105.735,171.07,104.585,171.393,104.566,171.849z"/>
			<g>
				<g>
					<g>
						<g>
							<g>
								<path style="fill:#0D0000;" d="M110.615,167.551c-0.022,0.742-0.368,1.334-0.773,1.322
									c-0.405-0.012-0.715-0.624-0.693-1.366c0.022-0.742,0.368-1.334,0.773-1.322
									C110.327,166.197,110.637,166.809,110.615,167.551z"/>
							</g>
						</g>
					</g>
				</g>
			</g>
			<path style="fill:#302162;" d="M106.723,164.432c-0.185-0.544,0.929-1.469,1.271-1.534c0.341-0.065,2.74,0.064,3.185,0.307
				s0.676,0.938,0.676,0.938C111.846,164.424,106.841,164.778,106.723,164.432z"/>
			<g>
				<g>
					<g>
						<g>
							<g>
								<path style="fill:#0D0000;" d="M115.937,167.724c-0.026,0.742,0.281,1.355,0.686,1.37c0.405,0.014,0.754-0.576,0.78-1.318
									c0.026-0.742-0.281-1.355-0.686-1.37C116.312,166.391,115.963,166.982,115.937,167.724z"/>
							</g>
						</g>
					</g>
				</g>
			</g>
			<path style="fill:#302162;" d="M120.022,164.863c0.22-0.531-0.832-1.526-1.168-1.613c-0.336-0.087-2.738-0.114-3.198,0.1
				c-0.459,0.214-0.736,0.892-0.736,0.892C114.911,164.523,119.883,165.201,120.022,164.863z"/>
			<path style="fill:none;stroke:#0D0000;stroke-width:0.5;stroke-miterlimit:10;" d="M110.966,176.499
				c0.553,0.377,1.237,0.522,1.906,0.525c0.669,0.004,1.331-0.125,1.987-0.253"/>
			<path style="fill:#EA7E8E;" d="M112.093,178.69c-0.052-0.344,1.94-0.304,1.828,0.003C113.809,179,112.154,179.097,112.093,178.69
				z"/>
			<path style="fill:none;stroke:#0D0000;stroke-width:0.5;stroke-miterlimit:10;" d="M113.049,169.787c0,0,1.338,2.153,1.536,2.482
				c0.197,0.329-0.946,0.73-1.553,0.763"/>
			<path style="fill:#FF96AA;" d="M103.043,165.48c0,0-4.932-3.841-6.285,0.466c-1.152,3.665,3.558,5.721,6.122,3.44L103.043,165.48
				z"/>
			<path style="fill:#302162;" d="M105.63,149.563c-1.801,0.39-0.962,5.236-0.178,6.521c0.734,1.203,4.007,3.411,5.595,3.646
				c1.643,0.244,3.255-0.049,4.803-0.473c0.973-0.267,2.028-0.459,3.006-0.061c1.928,0.785,3.305,5.877,3.748,7.449
				c0,0,3.177-1.976,2.198-6.922C123.796,154.639,116.247,147.262,105.63,149.563z"/>
			<path style="fill:#302162;" d="M104.203,153.292c0,0,3.246,5.566,3.251,6.81c0.004,1.244-2.907,1.876-3.156,2.422
				c-0.249,0.546,0.498,2.587-1.967,2.214c0,0-2.83-2.456-2.19-5.581C100.781,156.033,104.203,153.292,104.203,153.292z"/>
			<path style="fill:none;stroke:#0D0000;stroke-width:0.5;stroke-miterlimit:10;" d="M98.537,166.415c0,0,0.239-0.733,1.203-0.761
				c0.964-0.027,1.651,1.557,1.961,2.921"/>
			<path style="fill:#3E3177;" d="M82.792,272.885l-22.5,148.158l18.333,5.629l28.474-122.946c0,0,22.358-13.995,22.358-30.841
				H82.792z"/>
			<path style="fill:none;stroke:#0D0000;stroke-width:0.75;stroke-miterlimit:10;" d="M86.43,272.885l-2.192,13.223
				c0,0,7.118-1.656,9.618-13.223"/>
			<path style="fill:#FF96AA;" d="M72.304,104.03c0.366-1.006-2.037-1.482-2.037-1.482s1.029-0.382,1.417-1.188
				c0.388-0.806-1.24-1.88-1.24-1.88s1.886-2.08,1.193-2.912c-0.693-0.832-11.157-1.677-11.413,0.457
				c-0.256,2.134-0.673,7.461-0.673,7.461l3.821,8.068c5.719-1.444,5.209-7.763,5.209-7.763S71.938,105.036,72.304,104.03z"/>
			<path style="fill:#FF96AA;" d="M64.064,163.904l1.078-52.701c3.774-0.911,3.439-6.411,3.439-6.411s3.357,0.244,3.723-0.762
				c0.366-1.006-2.037-1.482-2.037-1.482s1.029-0.382,1.417-1.188c0.388-0.806-1.24-1.88-1.24-1.88s1.886-2.08,1.193-2.912
				c-0.693-0.832-11.157-1.677-11.413,0.457c-0.256,2.134-0.673,7.461-0.673,7.461s-11.103,56.624-11.736,62.628
				c-0.634,6.004,25.362,27.023,25.362,27.023l14.087-14.523L64.064,163.904z"/>
			<polygon style="fill:#FEF2FE;" points="103.055,188.47 72.342,169.094 60.292,185.791 87.328,210.395 			"/>
			<polygon style="fill:#FEF2FE;" points="115.801,188.045 146.677,168.117 158.706,184.785 130.383,212.228 			"/>
			
				<line style="fill:none;stroke:#0D0000;stroke-width:0.75;stroke-miterlimit:10;" x1="64.064" y1="163.904" x2="64.064" y2="167.529"/>
			<path style="fill:#0D0000;" d="M85.545,208.773l5.116,5.115c0,0-2.014,4.372-6.424,4.825L85.545,208.773z"/>
			<path style="fill:#FEF2FE;" d="M89.641,270.953c0,0,5.439,5.927,11.51,7.066c6.071,1.139,14.584-4.515,19.892-7.066H89.641z"/>
			<path style="fill:none;stroke:#0D0000;stroke-width:0.75;stroke-miterlimit:10;" d="M87.449,270.831c0,0,0.452-1.667,1.146-1.806
				c0.694-0.139,1.765,2.706,3.239,3.86"/>
			<path style="fill:none;stroke:#0D0000;stroke-width:0.75;stroke-miterlimit:10;" d="M117.316,272.885
				c0,0,3.453-2.064,4.564-3.865"/>
			<path style="fill:none;stroke:#0D0000;stroke-width:0.75;stroke-miterlimit:10;" d="M128.23,195.117c0,0,2.568,9.82,2.938,16.397
				"/>
			<path style="fill:none;stroke:#0D0000;stroke-width:0.75;stroke-miterlimit:10;" d="M101.659,187.589
				c0,0,1.056,8.938,8.223,8.521c7.167-0.417,7.604-9.153,7.604-9.153"/>
			
				<line style="fill:none;stroke:#0D0000;stroke-width:0.75;stroke-miterlimit:10;" x1="141.838" y1="171.24" x2="155.262" y2="188.122"/>
			
				<line style="fill:none;stroke:#0D0000;stroke-width:0.75;stroke-miterlimit:10;" x1="64.636" y1="189.745" x2="76.878" y2="171.955"/>
			<path style="fill:none;stroke:#0D0000;stroke-width:0.75;stroke-miterlimit:10;" d="M96.751,253.023
				c2.878-2.357,5.756-4.714,8.633-7.07c6.713-5.497,13.478-11.048,18.915-17.81"/>
			<path style="fill:none;stroke:#0D0000;stroke-width:0.75;stroke-miterlimit:10;" d="M126.702,239.168
				c-2.476,6.837-6.177,13.229-10.875,18.78"/>
			
				<line style="fill:none;stroke:#0D0000;stroke-width:0.75;stroke-miterlimit:10;" x1="99.892" y1="421.312" x2="119.264" y2="423.607"/>
			<path style="fill:none;stroke:#0D0000;stroke-width:0.75;stroke-miterlimit:10;" d="M61.061,415.981
				c0.032-0.213,19.001,4.486,19.001,4.486"/>
			<g>
				<g>
					<g>
						<path style="fill:#FFFFFF;" d="M90.493,93.301l-5.547,15.449h-1.807L77.59,93.301h1.881l3.614,10.176
							c0.148,0.409,0.28,0.799,0.396,1.173s0.22,0.733,0.312,1.078c0.091,0.346,0.172,0.68,0.243,1.004
							c0.07-0.324,0.151-0.66,0.243-1.009c0.091-0.349,0.197-0.711,0.317-1.088c0.12-0.377,0.254-0.773,0.402-1.189l3.593-10.145
							H90.493z"/>
						<path style="fill:#FFFFFF;" d="M106.005,101.005c0,1.19-0.151,2.273-0.455,3.249c-0.303,0.976-0.752,1.814-1.347,2.515
							c-0.595,0.701-1.333,1.242-2.214,1.622c-0.881,0.38-1.902,0.571-3.064,0.571c-1.198,0-2.242-0.19-3.133-0.571
							s-1.631-0.923-2.219-1.627c-0.588-0.704-1.029-1.546-1.321-2.525c-0.292-0.979-0.438-2.064-0.438-3.255
							c0-1.578,0.261-2.962,0.782-4.153c0.521-1.19,1.312-2.117,2.372-2.779c1.061-0.662,2.39-0.993,3.989-0.993
							c1.529,0,2.816,0.328,3.862,0.983s1.839,1.576,2.377,2.763C105.736,97.991,106.005,99.392,106.005,101.005z M93.705,101.005
							c0,1.31,0.187,2.444,0.56,3.402c0.374,0.958,0.946,1.698,1.717,2.219s1.752,0.782,2.943,0.782
							c1.198,0,2.179-0.261,2.943-0.782c0.765-0.521,1.33-1.261,1.696-2.219c0.366-0.958,0.549-2.092,0.549-3.402
							c0-1.994-0.417-3.552-1.252-4.676c-0.835-1.124-2.137-1.686-3.905-1.686c-1.198,0-2.184,0.257-2.959,0.771
							c-0.775,0.515-1.351,1.246-1.728,2.193C93.894,98.555,93.705,99.688,93.705,101.005z"/>
						<path style="fill:#FFFFFF;" d="M114.185,108.75h-1.807V94.886h-4.861v-1.585h11.507v1.585h-4.84V108.75z"/>
						<path style="fill:#FFFFFF;" d="M129.961,108.75h-8.602V93.301h8.602v1.585h-6.806v4.999h6.415v1.564h-6.415v5.717h6.806
							V108.75z"/>
						<path style="fill:#FFFFFF;" d="M138.479,107.651c0-0.493,0.12-0.843,0.359-1.051c0.239-0.208,0.539-0.312,0.898-0.312
							c0.352,0,0.65,0.104,0.893,0.312c0.243,0.208,0.365,0.559,0.365,1.051c0,0.486-0.122,0.84-0.365,1.062
							c-0.243,0.222-0.541,0.333-0.893,0.333c-0.359,0-0.659-0.111-0.898-0.333C138.598,108.492,138.479,108.138,138.479,107.651z
							 M140.328,104.46h-1.152l-0.486-11.159h2.124L140.328,104.46z"/>
					</g>
				</g>
			</g>
			<path style="fill:none;stroke:#0D0000;stroke-width:0.75;stroke-miterlimit:10;" d="M87.449,214.443
				c0,0-6.614,50.52-6.719,52.395c-0.104,1.875,3.62,6.047,3.62,6.047"/>
		</g>
		<g>
			<path style="fill:#F6DEF8;" d="M422.811,424.487c0,0-2.322,3.75-2.261,5.873c0.043,1.478,1.424,10.755,1.545,12.129
				c0.121,1.374,1.996,3.985,3.038,4.137c1.042,0.153,8.753,0.388,10.212-0.251c1.458-0.638-0.417-5.277-3.958-6.499
				L422.811,424.487z"/>
			<path style="fill:#FF96AA;" d="M393.01,301.155c0,0,29.484,130.849,34.035,132.507c4.55,1.658-7.313-133.142-7.313-133.142
				L393.01,301.155z"/>
			<path style="fill:#FF96AA;" d="M374.975,300.275c0,0,9.323,94.514,18.035,125.275c1.692,5.975,3.876,7.988,5.132,8.127
				c4.813,0.536,0.665-132.421,0.665-132.421L374.975,300.275z"/>
			<path style="fill:#40337B;" d="M411.062,254.419c0,0,2.971,8.562,5.093,17.2c2.083,8.479,8.357,58.425,8.357,58.425
				s-41.196,2.778-52.411,0l-2.625-75.625H411.062z"/>
			<path style="fill:#251D47;" d="M369.476,254.419l0.394,11.349c0,0,31.452,5.498,45.963,4.61c0,0-2.345-10.752-5.332-15.959
				H369.476z"/>
			<path style="fill:none;stroke:#0D0000;stroke-width:0.75;stroke-miterlimit:10;" d="M424.022,326.186c0,0-40.84,2.778-52.055,0"
				/>
			<path style="fill:none;stroke:#0D0000;stroke-width:0.75;stroke-miterlimit:10;" d="M405.736,254.419c0,0,4.312,8.562,6.434,17.2
				c2.083,8.479,8.252,58.675,8.252,58.675"/>
			<path style="fill:#302162;" d="M385.323,152.844c0,0,7.754-5.908,13.661,0s17.723,44.676,28.061,47.998
				c0,0-24.738,25.107-47.999,14.4c0,0-15.507-28.799-11.446-47.629S381.261,148.044,385.323,152.844z"/>
			<polygon style="fill:#FEF2FE;" points="369.476,254.419 366.967,261.788 382.3,261.788 384.155,256.874 386.443,261.788 
				414.268,261.788 411.062,254.419 			"/>
			<path style="fill:#FFDD84;" d="M381.002,190.033c0,0-4.115,0.425-4.677,0.701c-1.745,0.858-9.582,19.614-10.835,22.136
				c-1.254,2.522,5.298,10.234,5.298,10.234l-1.311,31.315h41.585c0,0-2.291-25.445-2.709-28.158
				c-0.418-2.713-1.668-33.817-1.668-33.817l-12.478-2.647L381.002,190.033z"/>
			<path style="fill:#FF96AA;" d="M400.725,191.183c0,0-0.574,1.147-1.585,2.747c-2.407,3.819-7.29,10.219-12.694,9.758
				c-4.694-0.4-5.683-5.426-5.736-9.275c-0.038-2.43,0.294-4.392,0.294-4.392l13.207-0.226L400.725,191.183z"/>
			<path style="fill:#EA7E8E;" d="M375.164,169.561c0,0-4.219-1.528-4.482,2.163c-0.264,3.691,1.933,5.185,5.272,3.867
				L375.164,169.561z"/>
			<g>
				<g>
					<g>
						<path style="fill:#FF96AA;" d="M393.818,173.565l0.391,16.232c0.176,3.262-1.902,6.117-4.741,6.514l0,0
							c-3.28,0.458-6.15-2.52-6.064-6.293l0.275-15.08L393.818,173.565z"/>
					</g>
				</g>
			</g>
			<path style="fill:#070019;" d="M383.391,183.674c4.191-0.129,8.671-6.369,8.671-6.369s2.148,12.436-8.657,12.656L383.391,183.674
				"/>
			<g>
				<g>
					<g>
						<g>
							<g>
								<path style="fill:#FF96AA;" d="M373.309,169.542c0.057,4.595,1.211,16.868,8.575,16.868
									c12.383,0,10.451-16.135,10.54-17.242c0.028-0.369,0.057-0.76,0.077-1.162c0.202-3.671-0.33-9.389-6.986-10.969
									c-4.747-1.122-11.18,3.786-12.123,9.765C373.392,166.803,373.29,167.888,373.309,169.542z"/>
							</g>
						</g>
					</g>
				</g>
			</g>
			<path style="fill:#EA7E8E;" d="M388.54,176.449c0.041-0.847-3.967-0.951-3.999,0C384.508,177.4,388.476,177.766,388.54,176.449z"
				/>
			<path style="fill:#EA7E8E;" d="M378.069,176.832c0.041-0.847-3.968-0.951-4,0C374.038,177.783,378.005,178.149,378.069,176.832z"
				/>
			<path style="fill:none;stroke:#0D0000;stroke-width:0.5;stroke-miterlimit:10;" d="M381.689,173.984c0,0-1.989-0.058-2.34,0.585
				c-0.351,0.644,2.457,2.353,2.457,2.353"/>
			<path style="fill:#FFDD84;" d="M406.685,192.444c4.34,0.155,10.646,21.352,13.046,28.8l-12.738,3.535
				c0,0-4.088-10.715-6.27-17.049C398.542,201.395,400.468,192.221,406.685,192.444z"/>
			<path style="fill:#FEF2FE;" d="M399.14,193.93c-2.407,3.819-7.29,10.219-12.694,9.758c-4.694-0.4-5.683-5.426-5.736-9.275
				c0.053-0.279,0.091-0.438,0.091-0.438s2.43,4.143,6.286,4.362C390.28,198.518,396.944,195.107,399.14,193.93z"/>
			<path style="fill:none;stroke:#0D0000;stroke-width:0.75;stroke-miterlimit:10;" d="M385.911,222.196
				c0,0,7.591,4.165,13.247-1.236"/>
			<path style="fill:none;stroke:#0D0000;stroke-width:0.75;stroke-miterlimit:10;" d="M370.787,223.104c0,0,0.456,0.628,3.69,0.864
				"/>
			<path style="fill:none;stroke:#0D0000;stroke-width:0.75;stroke-miterlimit:10;" d="M408.071,224.48
				c0,0-9.263-18.342-7.761-23.903"/>
			<path style="fill:#302162;" d="M374.619,167.719c0,0,0.846-1.241,2.716-1.061c1.87,0.18,2.125,0.935,1.949,1.17
				c-0.289,0.385-1.184,0.273-1.907-0.044C376.298,167.309,374.575,168.161,374.619,167.719z"/>
			<path style="fill:#302162;" d="M388.81,168.048c0,0-0.788-1.279-2.664-1.186c-1.876,0.093-2.166,0.835-2.001,1.078
				c0.271,0.398,1.169,0.328,1.907,0.044C387.152,167.561,388.834,168.492,388.81,168.048z"/>
			<path style="fill:#FF96AA;" d="M391.026,169.884c0,0,4.219-1.528,4.482,2.163c0.264,3.691-1.933,5.185-5.272,3.867
				L391.026,169.884z"/>
			<path style="fill:none;stroke:#0D0000;stroke-width:0.5;stroke-miterlimit:10;" d="M394.808,172.766c0,0-0.67-1.036-1.31-0.853
				c-0.64,0.183-1.859,1.524-2.285,2.468"/>
			<g>
				<g>
					<g>
						<g>
							<g>
								<path style="fill:#0D0000;" d="M383.132,171.227c-0.051,0.742,0.236,1.367,0.641,1.394c0.405,0.028,0.774-0.552,0.825-1.294
									c0.051-0.742-0.236-1.367-0.641-1.394C383.553,169.906,383.183,170.485,383.132,171.227z"/>
							</g>
						</g>
					</g>
				</g>
			</g>
			<g>
				<g>
					<g>
						<g>
							<g>
								<path style="fill:#0D0000;" d="M377.81,170.877c-0.047,0.743-0.413,1.324-0.818,1.298c-0.405-0.026-0.695-0.648-0.648-1.391
									c0.047-0.743,0.413-1.324,0.818-1.298C377.566,169.511,377.857,170.134,377.81,170.877z"/>
							</g>
						</g>
					</g>
				</g>
			</g>
			<path style="fill:none;stroke:#0D0000;stroke-width:0.75;stroke-miterlimit:10;" d="M414.268,222.76"/>
			<path style="fill:#FF96AA;" d="M331.187,114.221c0,0-1.331,46.975-0.812,51.52c0.634,5.557,28.844,33.08,28.844,33.08
				l9.46-10.441l-28.378-28.669l-2.636-48.708L331.187,114.221z"/>
			<path style="fill:#FF96AA;" d="M337.665,105.16l-6.367-4.515l-5.548,5.458c0,0,2.739,6.092,6.129,8.036l5.786-3.136V105.16z"/>
			
				<rect x="334.684" y="40.991" transform="matrix(0.9875 0.1574 -0.1574 0.9875 17.3938 -51.8334)" style="fill:#070019;" width="2.434" height="85.785"/>
			
				<rect x="302.806" y="47.004" transform="matrix(0.9875 0.1574 -0.1574 0.9875 15.0852 -52.4453)" style="fill:#B2ABDF;" width="71.652" height="44.013"/>
			<g>
				<g>
					<g>
						<path style="fill:#FFFFFF;" d="M323.267,57.363l-6.761,12.559l-1.552-0.233l-2.773-13.99l1.615,0.243l1.794,9.209
							c0.072,0.371,0.137,0.723,0.188,1.059s0.095,0.658,0.129,0.966s0.06,0.606,0.079,0.894c0.102-0.27,0.216-0.548,0.339-0.836
							c0.123-0.288,0.262-0.585,0.413-0.895c0.151-0.308,0.317-0.631,0.498-0.969l4.396-8.253L323.267,57.363z"/>
						<path style="fill:#FFFFFF;" d="M335.601,65.984c-0.153,1.023-0.424,1.934-0.81,2.733c-0.387,0.799-0.881,1.461-1.482,1.987
							s-1.306,0.895-2.111,1.108s-1.707,0.245-2.707,0.095c-1.028-0.154-1.9-0.452-2.618-0.895
							c-0.716-0.441-1.282-1.003-1.696-1.685c-0.415-0.681-0.685-1.461-0.81-2.341c-0.125-0.879-0.109-1.83,0.044-2.853
							c0.204-1.356,0.605-2.512,1.208-3.468c0.602-0.955,1.399-1.649,2.396-2.082c0.996-0.432,2.182-0.544,3.556-0.338
							c1.313,0.197,2.377,0.645,3.191,1.342c0.815,0.698,1.377,1.592,1.687,2.681C335.758,63.36,335.809,64.598,335.601,65.984z
							 M325.032,64.396c-0.169,1.126-0.155,2.125,0.042,2.996c0.197,0.872,0.594,1.581,1.188,2.128
							c0.597,0.547,1.405,0.897,2.428,1.051c1.03,0.154,1.907,0.058,2.63-0.292c0.725-0.35,1.306-0.912,1.745-1.688
							c0.437-0.776,0.74-1.727,0.909-2.853c0.258-1.713,0.101-3.106-0.472-4.179c-0.571-1.073-1.617-1.724-3.137-1.952
							c-1.029-0.154-1.909-0.061-2.643,0.281c-0.731,0.342-1.321,0.896-1.768,1.661C325.511,62.316,325.202,63.266,325.032,64.396z"
							/>
						<path style="fill:#FFFFFF;" d="M341.63,73.694l-1.553-0.233l1.789-11.912l-4.177-0.627l0.204-1.362l9.887,1.485l-0.204,1.362
							l-4.157-0.624L341.63,73.694z"/>
						<path style="fill:#FFFFFF;" d="M355.184,75.73l-7.391-1.11l1.993-13.274l7.391,1.11l-0.204,1.362l-5.847-0.878l-0.646,4.294
							l5.511,0.828l-0.201,1.344l-5.511-0.828l-0.738,4.912l5.847,0.878L355.184,75.73z"/>
						<path style="fill:#FFFFFF;" d="M362.644,75.885c0.063-0.424,0.212-0.709,0.445-0.857c0.231-0.147,0.502-0.198,0.812-0.152
							c0.302,0.045,0.544,0.173,0.727,0.383c0.183,0.21,0.241,0.527,0.178,0.951c-0.063,0.417-0.212,0.705-0.45,0.865
							c-0.238,0.159-0.508,0.216-0.81,0.17c-0.31-0.046-0.553-0.18-0.729-0.401C362.639,76.622,362.581,76.302,362.644,75.885z
							 M364.645,73.382l-0.989-0.149l1.021-9.65l1.825,0.274L364.645,73.382z"/>
					</g>
				</g>
			</g>
			<path style="fill:#EA7E8E;" d="M334.619,103.658c0.826-0.819-0.348-2.096-1.262-2.885c-0.914-0.789-3.155-1.273-3.667-0.89
				c-0.511,0.384,0.348,1.518,0.348,1.518s-1.795,0.012-2.102,0.416c-0.307,0.403,0.305,1.328,0.305,1.328s-2.021-0.681-2.387,0.042
				c-0.367,0.723,0.74,1.934,0.74,1.934s-1.128-0.407-1.501,0.278c-0.372,0.685,4.294,3.911,5.396,2.907
				c1.103-1.003,0.056-1.895,0.056-1.895s1.981,0.611,2.215-0.109c0.234-0.72-0.737-2.049-0.737-2.049
				S333.859,104.41,334.619,103.658z"/>
			<path style="fill:#FF96AA;" d="M337.665,105.16c0,0-1.741-4.203-2.253-4.662c-0.67-0.602-3.24-1.274-3.58-1.115
				s-1.521,3.407-0.769,3.828c0.752,0.421,2.232-1.773,2.232-1.773S332.963,108.276,337.665,105.16z"/>
			<polygon style="fill:#FFDD84;" points="381.002,190.033 361.45,179.515 352.707,194.115 375.954,210.914 			"/>
			
				<line style="fill:none;stroke:#0D0000;stroke-width:0.5;stroke-miterlimit:10;" x1="340.301" y1="159.711" x2="340.301" y2="161.987"/>
			<path style="fill:#FFFFFF;" d="M383.865,178.747l-3.707-0.188c0,0,0.151,5.075,2.012,5.074
				C383.67,183.632,383.865,178.747,383.865,178.747z"/>
			<path style="fill:#302162;" d="M392.429,169.591c0,0-5.486-2.235-5.889-8.463c0,0-11.229,8.005-16.333,7.09
				c0,0-1.528-14.422,15.139-13.306C398.24,155.775,392.429,169.591,392.429,169.591z"/>
			<g>
				<path style="fill:#F6DEF8;" d="M399.766,425.55c2.219-0.024,3.442,4.414,2.521,7.778c-0.922,3.364-6.578,11.936-8.003,13.123
					l-15.971,0.174c0,0-0.496-2.497,2.205-3.325c2.701-0.828,3.977-1.002,6.669-3.187L399.766,425.55z"/>
				<path style="fill:#FF96AA;" d="M399.766,425.55c0,0-1.128,10.046-5.073,14.481l-7.506,0.082c0,0,5.358-6.987,5.358-16.256
					L399.766,425.55z"/>
				<path style="fill:#F6DEF8;" d="M402.557,430.456c0,0-0.108,12.818,0.173,15.902l-1.429,0.016c0,0-0.771-12.077-0.472-13.997
					L402.557,430.456z"/>
			</g>
			<path style="fill:#FF96AA;" d="M422.811,422.83l1.076,17.045c0,0,3.333-0.861,7.5,0l-3.303-17.889L422.811,422.83z"/>
			<path style="fill:#FF96AA;" d="M438.158,188.136c-1.544-2.454,1.501-5.222,1.501-5.222s-1.923-1.619-1.595-2.348
				c0.328-0.729,1.862,0.269,1.862,0.269s-0.351-0.741-0.139-1.374c0.212-0.633,1.642-0.359,1.642-0.359s0.075-2.095,0.879-2.179
				c0.805-0.084,6.842,4.916,5.867,6.191c-0.975,1.275-3.528,4.342-3.528,4.342s-24.226,47.374-28.815,47.033
				c-5.672-0.422-7.947-10.132-7.947-10.132L438.158,188.136z"/>
			<path style="fill:none;stroke:#0D0000;stroke-width:0.75;stroke-miterlimit:10;" d="M368.679,205.657
				c0,0,2.049-5.35,5.391-11.453"/>
			
				<line style="fill:none;stroke:#0D0000;stroke-width:0.75;stroke-miterlimit:10;" x1="364.39" y1="181.096" x2="357.06" y2="197.261"/>
			
				<line style="fill:none;stroke:#0D0000;stroke-width:0.75;stroke-miterlimit:10;" x1="406.188" y1="220.535" x2="416.387" y2="210.914"/>
			
				<line style="fill:none;stroke:#0D0000;stroke-width:0.75;stroke-miterlimit:10;" x1="387.088" y1="198.337" x2="386.458" y2="201.69"/>
			<path style="fill:none;stroke:#0D0000;stroke-width:0.75;stroke-miterlimit:10;" d="M377.261,234.914
				c5.753,6.591,13,11.87,21.037,15.326"/>
			<path style="fill:none;stroke:#0D0000;stroke-width:0.75;stroke-miterlimit:10;" d="M376.27,242.566
				c1.179,2.725,2.797,5.26,4.775,7.475"/>
		</g>
	</g>
</g>
</svg>
